<svg width="32.000000" height="32.000000" viewBox="0 0 32 32" fill="none" xmlns="http://www.w3.org/2000/svg" xmlns:xlink="http://www.w3.org/1999/xlink">
	<desc>
			Created with Pixso.
	</desc>
	<defs>
		<clipPath id="clip133_1670">
			<rect width="32.000000" height="32.000000" fill="white" fill-opacity="0"/>
		</clipPath>
	</defs>
	<g clip-path="url(#clip133_1670)">
		<path d="M5 25.16C5 26.45 5.54 27 6.22 27L25.77 27C26.45 27 26.99 26.45 26.99 25.16L26.99 15.38L5 15.38L5 25.16ZM25.77 8.05L23.33 8.05L23.33 9.88C23.33 11.23 22.23 12.33 20.88 12.33C19.53 12.33 18.44 11.23 18.44 9.88L18.44 8.05L13.55 8.05L13.55 9.93C13.55 11.28 12.46 12.37 11.11 12.37C9.76 12.37 8.66 11.28 8.66 9.93L8.66 8.05L6.22 8.05C5.54 8.05 5 8.6 5 9.27L5 14.16L27 14.16L27 9.27C26.99 8.6 26.45 8.05 25.77 8.05ZM11.11 11.11C11.78 11.11 12.33 10.56 12.33 9.88L12.33 6.22C12.33 5.54 11.78 5 11.11 5C10.43 5 9.88 5.54 9.88 6.22L9.88 9.88C9.88 10.56 10.43 11.11 11.11 11.11ZM20.88 11.11C21.56 11.11 22.1 10.56 22.1 9.88L22.1 6.22C22.1 5.54 21.56 5 20.88 5C20.2 5 19.66 5.54 19.66 6.22L19.66 9.88C19.66 10.56 20.21 11.11 20.88 11.11Z" fill="#FFFFFF" fill-opacity="1.000000" fill-rule="nonzero"/>
	</g>
</svg>
