<svg width="32.000000" height="32.000000" viewBox="0 0 32 32" fill="none" xmlns="http://www.w3.org/2000/svg" xmlns:xlink="http://www.w3.org/1999/xlink">
	<desc>
			Created with Pixso.
	</desc>
	<defs/>
	<path d="M4.12 10.71C3.75 9.11 4.23 7.44 5.4 6.29C6.04 5.56 6.65 5.15 7.23 5.04C8.1 4.87 8.98 5.21 9.53 5.9L11.41 8.21C11.5 8.33 11.57 8.42 11.62 8.47C12.33 9.27 12.35 10.52 11.63 11.3L10.31 12.54C9.81 13.04 9.72 13.82 10.1 14.42C10.82 15.6 12.19 17.18 13.68 18.64C15.15 20.13 16.73 21.5 17.9 22.23C18.5 22.6 19.28 22.51 19.78 22.01L20.97 20.75C21.73 20.04 22.94 19.95 23.74 20.61L23.94 20.78C24.4 21.15 25.83 22.31 26.43 22.79C27.11 23.34 27.45 24.23 27.29 25.09C27.18 25.67 26.76 26.28 26.03 26.93C24.88 28.09 23.21 28.57 21.62 28.21C18.22 27.42 14.21 24.76 10.87 21.45C7.56 18.12 4.9 14.1 4.12 10.71Z" fill="#FFFFFF" fill-opacity="1.000000" fill-rule="nonzero"/>
	<path d="M5.4 6.29C6.04 5.56 6.65 5.15 7.23 5.04C8.1 4.87 8.98 5.21 9.53 5.9L11.41 8.21C11.5 8.33 11.57 8.42 11.62 8.47C12.33 9.27 12.35 10.52 11.63 11.3L10.31 12.54C9.81 13.04 9.72 13.82 10.1 14.42C10.82 15.6 12.19 17.18 13.68 18.64C15.15 20.13 16.73 21.5 17.9 22.23C18.5 22.6 19.28 22.51 19.78 22.01L20.97 20.75C21.73 20.04 22.94 19.95 23.74 20.61L23.94 20.78C24.4 21.15 25.83 22.31 26.43 22.79C27.11 23.34 27.45 24.23 27.29 25.09C27.18 25.67 26.76 26.28 26.03 26.93C24.88 28.09 23.21 28.57 21.62 28.21C18.22 27.42 14.21 24.76 10.87 21.45C7.56 18.12 4.9 14.1 4.12 10.71C3.75 9.11 4.23 7.44 5.4 6.29Z" stroke="#000000" stroke-opacity="0" stroke-width="1.000000"/>
</svg>
