<svg width="8.669922" height="16.470001" viewBox="0 0 8.66992 16.47" fill="none" xmlns="http://www.w3.org/2000/svg" xmlns:xlink="http://www.w3.org/1999/xlink">
	<desc>
			Created with Pixso.
	</desc>
	<defs/>
	<path id="path" d="M1.51 8.26L8.45 1.29C8.6 1.14 8.66 0.95 8.66 0.76C8.66 0.55 8.6 0.38 8.45 0.22C8.32 0.07 8.13 0 7.93 0C7.72 0 7.55 0.07 7.39 0.22L0.41 7.2C0.13 7.48 0 7.84 0 8.26C0 8.67 0.13 9.01 0.41 9.32L7.38 16.25C7.51 16.39 7.67 16.46 7.89 16.46C8.12 16.46 8.29 16.39 8.43 16.25C8.58 16.11 8.64 15.93 8.64 15.72C8.64 15.51 8.58 15.34 8.43 15.2L1.51 8.26Z" fill="#FFFFFF" fill-opacity="1.000000" fill-rule="nonzero"/>
</svg>
