<svg width="16.000000" height="16.000000" viewBox="0 0 16 16" fill="none" xmlns="http://www.w3.org/2000/svg" xmlns:xlink="http://www.w3.org/1999/xlink">
	<desc>
			Created with Pixso.
	</desc>
	<defs>
		<clipPath id="clip120_899">
			<rect width="16.000000" height="16.000000" fill="white" fill-opacity="0"/>
		</clipPath>
	</defs>
	<g clip-path="url(#clip120_899)">
		<path d="M13.63 2L12.06 2C11.85 2 11.68 2.17 11.68 2.38C11.68 2.58 11.85 2.75 12.06 2.75L13.25 2.75L13.25 9.47L9.34 9.47C9.13 9.47 8.96 9.64 8.96 9.85C8.96 10.05 9.13 10.22 9.34 10.22L13.25 10.22L13.25 13.25L7.38 13.25L7.38 12.19C7.38 11.99 7.21 11.82 7.01 11.82C6.8 11.82 6.63 11.99 6.63 12.19L6.63 13.25L2.75 13.25L2.75 8.37L6.63 8.37L6.63 9.85C6.63 10.05 6.8 10.22 7.01 10.22C7.21 10.22 7.38 10.05 7.38 9.85L7.38 6.16C7.38 5.95 7.21 5.78 7.01 5.78C6.8 5.78 6.63 5.95 6.63 6.16L6.63 7.62L2.75 7.62L2.75 2.75L6.63 2.75L6.63 3.81C6.63 4.02 6.8 4.18 7.01 4.18C7.21 4.18 7.38 4.02 7.38 3.81L7.38 2.75L9.4 2.75C9.61 2.75 9.77 2.58 9.77 2.38C9.77 2.17 9.61 2 9.4 2L2.38 2C2.17 2 2 2.17 2 2.38L2 13.63C2 13.83 2.17 14 2.38 14L13.63 14C13.84 14 14 13.83 14 13.63L14 2.38C14 2.17 13.84 2 13.63 2Z" fill="#000000" fill-opacity="0.600000" fill-rule="nonzero"/>
	</g>
</svg>
