<svg width="16.000000" height="16.000000" viewBox="0 0 16 16" fill="none" xmlns="http://www.w3.org/2000/svg" xmlns:xlink="http://www.w3.org/1999/xlink">
	<desc>
			Created with Pixso.
	</desc>
	<defs>
		<clipPath id="clip120_867">
			<rect width="16.000000" height="16.000000" fill="white" fill-opacity="0"/>
		</clipPath>
	</defs>
	<g clip-path="url(#clip120_867)">
		<path d="M10.32 13.25L2.64 13.25L2.64 3.35C2.64 2.86 3.04 2.46 3.53 2.46L9.43 2.46C9.92 2.46 10.32 2.86 10.32 3.35L10.32 13.25ZM3.44 12.45L9.53 12.45L9.53 3.35C9.53 3.3 9.48 3.25 9.43 3.25L3.53 3.25C3.48 3.25 3.44 3.3 3.44 3.35L3.44 12.45Z" fill="#000000" fill-opacity="0.600000" fill-rule="nonzero"/>
		<path d="M14.16 13.25L1.91 13.25C1.69 13.25 1.51 13.07 1.51 12.85C1.51 12.63 1.69 12.45 1.91 12.45L14.16 12.45C14.38 12.45 14.56 12.63 14.56 12.85C14.56 13.07 14.38 13.25 14.16 13.25Z" fill="#000000" fill-opacity="0.600000" fill-rule="nonzero"/>
		<path d="M13.45 12.85L12.66 12.85L12.66 8.3C12.66 8.28 12.64 8.25 12.62 8.23L9.62 5.74L10.13 5.13L13.13 7.62C13.34 7.79 13.45 8.04 13.45 8.3L13.45 12.85ZM7.63 5.57L5.38 5.57C5.16 5.57 4.99 5.39 4.99 5.17C4.99 4.95 5.16 4.77 5.38 4.77L7.63 4.77C7.85 4.77 8.02 4.95 8.02 5.17C8.02 5.39 7.85 5.57 7.63 5.57ZM7.63 7.89L5.38 7.89C5.16 7.89 4.99 7.71 4.99 7.49C4.99 7.27 5.16 7.09 5.38 7.09L7.63 7.09C7.85 7.09 8.02 7.27 8.02 7.49C8.02 7.71 7.85 7.89 7.63 7.89ZM7.63 10.19L5.38 10.19C5.16 10.19 4.99 10.02 4.99 9.8C4.99 9.58 5.16 9.4 5.38 9.4L7.63 9.4C7.85 9.4 8.02 9.58 8.02 9.8C8.02 10.02 7.85 10.19 7.63 10.19Z" fill="#000000" fill-opacity="0.600000" fill-rule="nonzero"/>
		<path d="M11.46 10.57C11.24 10.57 11.07 10.4 11.07 10.18L11.07 9.41C11.07 9.19 11.24 9.01 11.46 9.01C11.68 9.01 11.86 9.19 11.86 9.41L11.86 10.18C11.86 10.4 11.68 10.57 11.46 10.57Z" fill="#000000" fill-opacity="0.600000" fill-rule="nonzero"/>
	</g>
</svg>
