<svg width="16.000000" height="16.000000" viewBox="0 0 16 16" fill="none" xmlns="http://www.w3.org/2000/svg" xmlns:xlink="http://www.w3.org/1999/xlink">
	<desc>
			Created with Pixso.
	</desc>
	<defs>
		<clipPath id="clip82_439">
			<rect id="svg" width="16.000000" height="16.000000" fill="white" fill-opacity="0"/>
		</clipPath>
	</defs>
	<g clip-path="url(#clip82_439)">
		<path id="path" d="M5.08 3.67L9.37 7.63L5.08 11.59C5.05 11.62 5.03 11.65 5.01 11.67C4.99 11.7 4.97 11.73 4.95 11.77C4.94 11.8 4.93 11.83 4.92 11.87C4.91 11.9 4.91 11.94 4.9 11.97C4.9 12.01 4.9 12.04 4.91 12.08C4.92 12.12 4.92 12.15 4.94 12.18C4.95 12.22 4.97 12.25 4.98 12.28C5 12.31 5.02 12.34 5.05 12.37C5.07 12.39 5.1 12.42 5.13 12.44C5.16 12.46 5.19 12.48 5.22 12.49C5.25 12.51 5.29 12.52 5.32 12.53C5.36 12.53 5.39 12.54 5.43 12.54C5.46 12.54 5.5 12.54 5.53 12.53C5.57 12.53 5.6 12.52 5.64 12.51C5.67 12.49 5.7 12.48 5.73 12.46C5.76 12.44 5.79 12.42 5.82 12.4L10.55 8.03C10.57 8.01 10.6 7.98 10.62 7.95C10.64 7.92 10.66 7.88 10.68 7.85C10.69 7.82 10.7 7.78 10.71 7.74C10.72 7.71 10.72 7.67 10.72 7.63C10.72 7.59 10.72 7.56 10.71 7.52C10.7 7.48 10.69 7.45 10.68 7.41C10.66 7.38 10.64 7.35 10.62 7.31C10.6 7.28 10.57 7.26 10.55 7.23L5.82 2.87C5.79 2.84 5.76 2.82 5.73 2.8C5.7 2.78 5.67 2.77 5.64 2.76C5.6 2.74 5.57 2.73 5.53 2.73C5.5 2.72 5.46 2.72 5.43 2.72C5.39 2.72 5.36 2.73 5.32 2.74C5.29 2.75 5.25 2.76 5.22 2.77C5.19 2.79 5.16 2.81 5.13 2.83C5.1 2.85 5.07 2.87 5.05 2.9C5.02 2.92 5 2.95 4.98 2.98C4.96 3.01 4.95 3.05 4.94 3.08C4.92 3.11 4.92 3.15 4.91 3.18C4.9 3.22 4.9 3.25 4.9 3.29C4.91 3.33 4.91 3.36 4.92 3.4C4.93 3.43 4.94 3.46 4.95 3.5C4.97 3.53 4.99 3.56 5.01 3.59C5.03 3.62 5.05 3.64 5.08 3.67Z" fill="#000000" fill-opacity="0.898039" fill-rule="nonzero"/>
	</g>
</svg>
