<svg width="42.000000" height="42.000000" viewBox="0 0 42 42" fill="none" xmlns="http://www.w3.org/2000/svg" xmlns:xlink="http://www.w3.org/1999/xlink">
	<desc>
			Created with Pixso.
	</desc>
	<defs>
		<clipPath id="clip84_461">
			<rect width="32.000000" height="32.000000" transform="translate(5.000000 5.000000)" fill="white" fill-opacity="0"/>
		</clipPath>
	</defs>
	<circle cx="21.000000" cy="21.000000" r="21.000000" fill="#F3F3F3" fill-opacity="1.000000"/>
	<g clip-path="url(#clip84_461)">
		<path d="M36.13 19.56C36.3 19.84 36.19 20.2 35.89 20.37L34.26 21.33C33.97 21.51 33.6 21.42 33.44 21.15L29.04 13.68C28.88 13.4 28.99 13.04 29.28 12.87L30.91 11.91C31.21 11.73 31.58 11.81 31.74 12.09L36.13 19.56ZM8.74 21.33C8.73 21.37 8.71 21.4 8.69 21.44C8.66 21.47 8.64 21.5 8.61 21.53C8.58 21.56 8.55 21.59 8.52 21.61C8.48 21.63 8.45 21.65 8.41 21.67C8.37 21.69 8.34 21.7 8.3 21.71C8.26 21.72 8.22 21.72 8.18 21.72C8.13 21.72 8.09 21.72 8.05 21.71C8.01 21.71 7.98 21.7 7.94 21.68L6.17 20.99C6.14 20.98 6.1 20.96 6.07 20.94C6.03 20.91 6 20.89 5.97 20.86C5.94 20.83 5.92 20.8 5.89 20.77C5.87 20.74 5.85 20.7 5.83 20.66C5.82 20.63 5.8 20.59 5.8 20.55C5.79 20.51 5.78 20.47 5.78 20.43C5.78 20.39 5.78 20.35 5.79 20.31C5.8 20.27 5.81 20.23 5.82 20.19L9.21 11.51C9.23 11.47 9.25 11.43 9.27 11.4C9.29 11.37 9.32 11.33 9.34 11.3C9.37 11.28 9.4 11.25 9.44 11.23C9.47 11.2 9.5 11.18 9.54 11.17C9.58 11.15 9.62 11.14 9.66 11.13C9.7 11.12 9.74 11.12 9.78 11.11C9.82 11.11 9.86 11.12 9.9 11.12C9.94 11.13 9.98 11.14 10.02 11.16L11.78 11.85C11.82 11.86 11.85 11.88 11.89 11.9C11.92 11.92 11.95 11.95 11.98 11.98C12.01 12 12.04 12.03 12.06 12.07C12.08 12.1 12.1 12.14 12.12 12.17C12.14 12.21 12.15 12.25 12.16 12.29C12.17 12.33 12.17 12.37 12.17 12.41C12.17 12.45 12.17 12.49 12.16 12.53C12.16 12.57 12.15 12.61 12.13 12.65L8.74 21.33ZM28.92 14.01L33.27 21.38L29.87 24.93L22.44 16.92C22.44 16.92 22.05 16.34 21.62 16.63C21.2 16.92 17.12 19.03 17.12 19.03C17.12 19.03 15.81 19.61 15.38 19.1C14.94 18.6 14.72 17.57 15.38 16.92C16.03 16.27 20.84 13.26 21.86 12.96C22.69 12.71 23.92 12.37 25.03 13.32C26.08 14.24 28.06 14.32 28.92 14.01ZM21.25 30.93C20.82 31.38 20.11 31.4 19.66 30.97C19.2 30.54 19.19 29.82 19.62 29.37L20.64 28.29C21.07 27.84 21.79 27.82 22.24 28.25C22.69 28.68 22.71 29.39 22.28 29.85L21.25 30.93ZM13.69 26.27C13.3 26.68 12.63 26.68 12.2 26.26C11.76 25.85 11.73 25.18 12.11 24.77L13.04 23.79C13.43 23.38 14.1 23.39 14.54 23.8C14.97 24.22 15.01 24.88 14.62 25.29L13.69 26.27ZM18.51 29.61C18.14 30.01 17.47 29.99 17.02 29.57C16.58 29.15 16.52 28.48 16.9 28.09L19.06 25.8C19.44 25.4 20.11 25.42 20.55 25.85C21 26.27 21.05 26.93 20.68 27.33L18.51 29.61ZM16.26 27.86C15.93 28.2 15.31 28.15 14.87 27.74C14.44 27.32 14.35 26.7 14.68 26.36L16.57 24.35C16.9 24.01 17.53 24.06 17.96 24.47C18.4 24.89 18.49 25.51 18.16 25.86L16.26 27.86Z" fill="#000000" fill-opacity="1.000000" fill-rule="nonzero"/>
		<path d="M12.39 23.71L11.77 24.35L9.3 21.72C9.3 21.72 9.04 21.63 9.3 20.86C9.55 20.09 12.32 13.06 12.32 13.06C12.32 13.06 12.72 12.7 13.01 12.92C13.3 13.13 13.87 14.01 14.48 13.86C15.09 13.72 17.63 11.93 18.54 12.11C19.45 12.3 20.36 12.95 20.36 12.95L19.6 13.42C19.6 13.42 18.83 12.95 18.36 12.99C17.89 13.02 14.92 14.97 14.32 14.9C13.73 14.83 12.79 14.19 12.79 14.19C12.79 14.19 10.08 20.77 10.16 21.2C10.2 21.42 12.39 23.71 12.39 23.71ZM22.94 29.68C22.94 29.68 24.56 30.23 24.48 28.45L21.99 25.52C21.99 25.52 21.79 24.9 22.59 24.93L25.35 28.09C25.35 28.09 26.23 28.54 26.8 27.94C27.37 27.33 26.94 26.73 26.94 26.73L24.4 23.76C24.4 23.76 24.1 23.37 24.53 23.05C24.97 22.72 25.33 23.32 25.33 23.32L27.92 26.44C27.92 26.44 28.69 27.01 29.56 26.3C30.28 25.7 30.2 24.64 30.2 24.64L30.19 24.12L30.81 23.72C30.81 23.72 31.28 25.92 30.31 26.8C29.34 27.67 27.89 27.35 27.89 27.35C27.89 27.35 27.76 28.51 26.96 28.89C26.17 29.27 25.41 29.03 25.41 29.03C25.41 29.03 25.43 30.04 24.51 30.5C23.58 30.97 22.4 30.5 22.4 30.5L22.94 29.68Z" fill="#000000" fill-opacity="1.000000" fill-rule="nonzero"/>
	</g>
</svg>
