<svg width="42.000000" height="42.000000" viewBox="0 0 42 42" fill="none" xmlns="http://www.w3.org/2000/svg" xmlns:xlink="http://www.w3.org/1999/xlink">
	<desc>
			Created with Pixso.
	</desc>
	<defs>
		<clipPath id="clip84_466">
			<rect width="32.000000" height="32.000000" transform="translate(5.000000 5.000000)" fill="white" fill-opacity="0"/>
		</clipPath>
	</defs>
	<circle cx="21.000000" cy="21.000000" r="21.000000" fill="#F3F3F3" fill-opacity="1.000000"/>
	<g clip-path="url(#clip84_466)">
		<path d="M28.59 32.83L13.11 32.83C11.93 32.83 10.95 31.81 10.95 30.57L10.95 13.16C10.95 11.9 11.93 10.9 13.11 10.9L15.72 10.9C16.14 10.9 16.47 11.23 16.47 11.65C16.47 12.07 16.14 12.4 15.72 12.4L13.11 12.4C12.75 12.4 12.45 12.75 12.45 13.16L12.45 30.57C12.45 30.99 12.75 31.33 13.11 31.33L28.59 31.33C28.95 31.33 29.25 30.99 29.25 30.57L29.25 13.16C29.25 12.75 28.95 12.4 28.59 12.4L25.94 12.4C25.52 12.4 25.19 12.07 25.19 11.65C25.19 11.23 25.52 10.9 25.94 10.9L28.59 10.9C29.78 10.9 30.75 11.92 30.75 13.16L30.75 30.57C30.75 31.81 29.78 32.83 28.59 32.83Z" fill="#000000" fill-opacity="0.898039" fill-rule="nonzero"/>
		<path d="M23.84 13.43L17.87 13.43C17.18 13.43 16.62 12.88 16.62 12.19L16.62 12.06C16.62 11.36 17.18 10.81 17.87 10.81L23.84 10.81C24.53 10.81 25.08 11.36 25.08 12.06L25.08 12.19C25.08 12.86 24.53 13.43 23.84 13.43ZM17.87 12C17.84 12 17.82 12.03 17.82 12.04L17.82 12.17C17.82 12.21 17.85 12.22 17.87 12.22L23.84 12.22C23.87 12.22 23.88 12.19 23.88 12.17L23.88 12.04C23.88 12.01 23.85 12 23.84 12L17.87 12Z" fill="#000000" fill-opacity="0.898039" fill-rule="nonzero"/>
		<path d="M23.84 12.03C23.42 12.03 23.09 11.7 23.09 11.28C23.09 9.97 21.87 9.39 20.75 9.39C19.71 9.39 18.6 9.88 18.6 11.28C18.6 11.7 18.27 12.03 17.85 12.03C17.43 12.03 17.1 11.7 17.1 11.28C17.1 9.28 18.6 7.89 20.75 7.89C22.97 7.89 24.59 9.31 24.59 11.28C24.59 11.68 24.26 12.03 23.84 12.03Z" fill="#000000" fill-opacity="0.898039" fill-rule="nonzero"/>
		<path d="M21.17 17.29L15.77 17.29C15.41 17.29 15.12 17.01 15.12 16.64L15.12 16.43C15.12 16.07 15.41 15.79 15.77 15.79L21.17 15.79C21.53 15.79 21.81 16.07 21.81 16.43L21.81 16.64C21.81 16.99 21.53 17.29 21.17 17.29Z" fill="#000000" fill-opacity="0.898039" fill-rule="nonzero"/>
		<path d="M12.93 16.54C12.93 16.59 12.94 16.64 12.95 16.69C12.96 16.73 12.97 16.78 12.99 16.83C13.01 16.87 13.03 16.92 13.06 16.96C13.09 17 13.12 17.04 13.15 17.07C13.19 17.11 13.22 17.14 13.27 17.16C13.31 17.19 13.35 17.21 13.39 17.23C13.44 17.25 13.49 17.27 13.54 17.28C13.58 17.29 13.63 17.29 13.68 17.29C13.73 17.29 13.78 17.29 13.83 17.28C13.88 17.27 13.92 17.25 13.97 17.23C14.01 17.21 14.06 17.19 14.1 17.16C14.14 17.14 14.18 17.11 14.21 17.07C14.25 17.04 14.28 17 14.31 16.96C14.33 16.92 14.36 16.87 14.37 16.83C14.39 16.78 14.41 16.73 14.42 16.69C14.43 16.64 14.43 16.59 14.43 16.54C14.43 16.49 14.43 16.44 14.42 16.39C14.41 16.35 14.39 16.3 14.37 16.25C14.36 16.21 14.33 16.16 14.31 16.12C14.28 16.08 14.25 16.04 14.21 16.01C14.18 15.97 14.14 15.94 14.1 15.92C14.06 15.89 14.01 15.87 13.97 15.85C13.92 15.83 13.88 15.81 13.83 15.8C13.78 15.79 13.73 15.79 13.68 15.79C13.63 15.79 13.58 15.79 13.54 15.8C13.49 15.81 13.44 15.83 13.39 15.85C13.35 15.87 13.31 15.89 13.27 15.92C13.22 15.94 13.19 15.97 13.15 16.01C13.12 16.04 13.09 16.08 13.06 16.12C13.03 16.16 13.01 16.21 12.99 16.25C12.97 16.3 12.96 16.35 12.95 16.39C12.94 16.44 12.93 16.49 12.93 16.54Z" fill="#000000" fill-opacity="0.898039" fill-rule="nonzero"/>
		<path d="M21.06 22.6L15.87 22.6C15.45 22.6 15.12 22.27 15.12 21.85C15.12 21.43 15.45 21.1 15.87 21.1L21.06 21.1C21.48 21.1 21.81 21.43 21.81 21.85C21.81 22.27 21.47 22.6 21.06 22.6Z" fill="#000000" fill-opacity="0.898039" fill-rule="nonzero"/>
		<path d="M12.93 21.85C12.93 21.9 12.94 21.95 12.95 22C12.96 22.04 12.97 22.09 12.99 22.14C13.01 22.18 13.03 22.23 13.06 22.27C13.09 22.31 13.12 22.35 13.15 22.38C13.19 22.42 13.22 22.45 13.27 22.47C13.31 22.5 13.35 22.52 13.39 22.54C13.44 22.56 13.49 22.58 13.54 22.59C13.58 22.6 13.63 22.6 13.68 22.6C13.73 22.6 13.78 22.6 13.83 22.59C13.88 22.58 13.92 22.56 13.97 22.54C14.01 22.52 14.06 22.5 14.1 22.47C14.14 22.45 14.18 22.42 14.21 22.38C14.25 22.35 14.28 22.31 14.31 22.27C14.33 22.23 14.36 22.18 14.37 22.14C14.39 22.09 14.41 22.04 14.42 22C14.43 21.95 14.43 21.9 14.43 21.85C14.43 21.8 14.43 21.75 14.42 21.7C14.41 21.66 14.39 21.61 14.37 21.56C14.36 21.52 14.33 21.47 14.31 21.43C14.28 21.39 14.25 21.35 14.21 21.32C14.18 21.28 14.14 21.25 14.1 21.23C14.06 21.2 14.01 21.18 13.97 21.16C13.92 21.14 13.88 21.12 13.83 21.11C13.78 21.1 13.73 21.1 13.68 21.1C13.63 21.1 13.58 21.1 13.54 21.11C13.49 21.12 13.44 21.14 13.39 21.16C13.35 21.18 13.31 21.2 13.27 21.23C13.22 21.25 13.19 21.28 13.15 21.32C13.12 21.35 13.09 21.39 13.06 21.43C13.03 21.47 13.01 21.52 12.99 21.56C12.97 21.61 12.96 21.66 12.95 21.7C12.94 21.75 12.93 21.8 12.93 21.85Z" fill="#000000" fill-opacity="0.898039" fill-rule="nonzero"/>
		<path d="M21.06 27.91L15.87 27.91C15.45 27.91 15.12 27.58 15.12 27.16C15.12 26.74 15.45 26.41 15.87 26.41L21.06 26.41C21.48 26.41 21.81 26.74 21.81 27.16C21.81 27.58 21.47 27.91 21.06 27.91Z" fill="#000000" fill-opacity="0.898039" fill-rule="nonzero"/>
		<path d="M12.93 27.16C12.93 27.21 12.94 27.26 12.95 27.31C12.96 27.35 12.97 27.4 12.99 27.45C13.01 27.49 13.03 27.54 13.06 27.58C13.09 27.62 13.12 27.66 13.15 27.69C13.19 27.73 13.22 27.76 13.27 27.78C13.31 27.81 13.35 27.83 13.39 27.85C13.44 27.87 13.49 27.89 13.54 27.9C13.58 27.91 13.63 27.91 13.68 27.91C13.73 27.91 13.78 27.91 13.83 27.9C13.88 27.89 13.92 27.87 13.97 27.85C14.01 27.83 14.06 27.81 14.1 27.78C14.14 27.76 14.18 27.73 14.21 27.69C14.25 27.66 14.28 27.62 14.31 27.58C14.33 27.54 14.36 27.49 14.37 27.45C14.39 27.4 14.41 27.35 14.42 27.31C14.43 27.26 14.43 27.21 14.43 27.16C14.43 27.11 14.43 27.06 14.42 27.01C14.41 26.97 14.39 26.92 14.37 26.87C14.36 26.83 14.33 26.78 14.31 26.74C14.28 26.7 14.25 26.66 14.21 26.63C14.18 26.59 14.14 26.56 14.1 26.54C14.06 26.51 14.01 26.49 13.97 26.47C13.92 26.45 13.88 26.43 13.83 26.42C13.78 26.41 13.73 26.41 13.68 26.41C13.63 26.41 13.58 26.41 13.54 26.42C13.49 26.43 13.44 26.45 13.39 26.47C13.35 26.49 13.31 26.51 13.27 26.54C13.22 26.56 13.19 26.59 13.15 26.63C13.12 26.66 13.09 26.7 13.06 26.74C13.03 26.78 13.01 26.83 12.99 26.87C12.97 26.92 12.96 26.97 12.95 27.01C12.94 27.06 12.93 27.11 12.93 27.16Z" fill="#000000" fill-opacity="0.898039" fill-rule="nonzero"/>
		<path d="M22.79 19.78C22.79 19.93 22.79 20.09 22.81 20.24C22.82 20.39 22.85 20.54 22.88 20.69C22.91 20.84 22.94 20.99 22.99 21.14C23.03 21.29 23.08 21.43 23.14 21.57C23.2 21.72 23.27 21.85 23.34 21.99C23.41 22.13 23.49 22.26 23.58 22.38C23.66 22.51 23.75 22.64 23.85 22.75C23.95 22.87 24.05 22.99 24.16 23.1C24.27 23.2 24.38 23.31 24.5 23.4C24.62 23.5 24.74 23.59 24.87 23.68C25 23.76 25.13 23.84 25.26 23.92C25.4 23.99 25.54 24.05 25.68 24.11C25.82 24.17 25.97 24.22 26.11 24.27C26.26 24.31 26.41 24.35 26.56 24.38C26.71 24.41 26.86 24.43 27.02 24.45C27.17 24.46 27.32 24.47 27.48 24.47C27.63 24.47 27.78 24.46 27.93 24.45C28.09 24.43 28.24 24.41 28.39 24.38C28.54 24.35 28.69 24.31 28.84 24.27C28.98 24.22 29.13 24.17 29.27 24.11C29.41 24.05 29.55 23.99 29.69 23.92C29.82 23.84 29.95 23.76 30.08 23.68C30.21 23.59 30.33 23.5 30.45 23.4C30.57 23.31 30.68 23.2 30.79 23.1C30.9 22.99 31 22.87 31.1 22.75C31.2 22.64 31.29 22.51 31.37 22.38C31.46 22.26 31.54 22.13 31.61 21.99C31.68 21.85 31.75 21.72 31.81 21.57C31.87 21.43 31.92 21.29 31.96 21.14C32.01 20.99 32.04 20.84 32.07 20.69C32.1 20.54 32.13 20.39 32.14 20.24C32.16 20.09 32.16 19.93 32.16 19.78C32.16 19.63 32.16 19.47 32.14 19.32C32.13 19.17 32.1 19.01 32.07 18.86C32.04 18.71 32.01 18.56 31.96 18.42C31.92 18.27 31.87 18.13 31.81 17.98C31.75 17.84 31.68 17.7 31.61 17.57C31.54 17.43 31.46 17.3 31.37 17.17C31.29 17.05 31.2 16.92 31.1 16.8C31 16.68 30.9 16.57 30.79 16.46C30.68 16.35 30.57 16.25 30.45 16.15C30.33 16.06 30.21 15.96 30.08 15.88C29.95 15.79 29.82 15.72 29.69 15.64C29.55 15.57 29.41 15.5 29.27 15.45C29.13 15.39 28.98 15.34 28.84 15.29C28.69 15.25 28.54 15.21 28.39 15.18C28.24 15.15 28.09 15.13 27.93 15.11C27.78 15.1 27.63 15.09 27.48 15.09C27.32 15.09 27.17 15.1 27.02 15.11C26.86 15.13 26.71 15.15 26.56 15.18C26.41 15.21 26.26 15.25 26.11 15.29C25.97 15.34 25.82 15.39 25.68 15.45C25.54 15.5 25.4 15.57 25.26 15.64C25.13 15.72 25 15.79 24.87 15.88C24.74 15.96 24.62 16.06 24.5 16.15C24.38 16.25 24.27 16.35 24.16 16.46C24.05 16.57 23.95 16.68 23.85 16.8C23.75 16.92 23.66 17.05 23.58 17.17C23.49 17.3 23.41 17.43 23.34 17.57C23.27 17.7 23.2 17.84 23.14 17.98C23.08 18.13 23.03 18.27 22.99 18.42C22.94 18.56 22.91 18.71 22.88 18.86C22.85 19.01 22.82 19.17 22.81 19.32C22.79 19.47 22.79 19.63 22.79 19.78Z" fill="#FFFFFF" fill-opacity="1.000000" fill-rule="nonzero"/>
		<path d="M27.74 25C24.9 25 22.59 22.69 22.59 19.86C22.59 17.02 24.9 14.71 27.74 14.71C30.57 14.71 32.88 17.02 32.88 19.86C32.88 22.69 30.57 25 27.74 25ZM27.74 16.23C25.73 16.23 24.09 17.86 24.09 19.87C24.09 21.88 25.73 23.52 27.74 23.52C29.75 23.52 31.38 21.88 31.38 19.87C31.38 17.86 29.75 16.23 27.74 16.23Z" fill="#000000" fill-opacity="0.898039" fill-rule="nonzero"/>
		<path d="M26.6 21.67C26.3 21.37 26.3 20.9 26.6 20.6L29.16 18.06C29.46 17.76 29.93 17.76 30.23 18.06C30.53 18.35 30.53 18.82 30.23 19.12L27.66 21.67C27.36 21.97 26.9 21.97 26.6 21.67Z" fill="#000000" fill-opacity="0.898039" fill-rule="nonzero"/>
		<path d="M27.68 21.67C27.38 21.97 26.91 21.97 26.61 21.67L25.73 20.79C25.43 20.49 25.43 20.02 25.73 19.72C26.03 19.42 26.49 19.42 26.79 19.72L27.68 20.61C27.98 20.9 27.98 21.38 27.68 21.67Z" fill="#000000" fill-opacity="0.898039" fill-rule="nonzero"/>
	</g>
</svg>
