<svg width="24.000000" height="24.000000" viewBox="0 0 24 24" fill="none" xmlns="http://www.w3.org/2000/svg" xmlns:xlink="http://www.w3.org/1999/xlink">
	<desc>
			Created with Pixso.
	</desc>
	<defs>
		<clipPath id="clip98_1392">
			<rect width="24.000000" height="24.000000" fill="white" fill-opacity="0"/>
		</clipPath>
	</defs>
	<g clip-path="url(#clip98_1392)">
		<path d="M20.16 6.08L17.88 3.81C17.3 3.23 16.41 3.24 15.83 3.82L14.7 4.95L19.05 9.29L20.16 8.19C20.74 7.59 20.73 6.67 20.16 6.08ZM4.28 15.38C4.07 15.7 3.77 17.1 3.39 19.48L3.39 19.51C3.39 19.8 3.5 20.09 3.69 20.31C3.86 20.53 4.2 20.63 4.47 20.6L4.5 20.6C6.79 20.24 8.17 19.95 8.59 19.7L4.28 15.38ZM18.52 9.81L14.18 5.46L12 7.63L7.65 11.98L4.81 14.82L9.16 19.17L10.22 18.11L16.54 11.79L18.73 9.6L18.52 9.81ZM8.02 3.66C7.44 3.08 6.55 3.08 5.96 3.66L3.66 5.98C3.07 6.57 3.12 7.43 3.69 8.01L4.44 8.77L6.78 6.44C6.8 6.42 6.82 6.4 6.84 6.39C6.86 6.38 6.88 6.36 6.9 6.35C6.92 6.34 6.95 6.34 6.97 6.33C6.99 6.33 7.02 6.33 7.04 6.33C7.07 6.33 7.09 6.33 7.11 6.33C7.14 6.34 7.16 6.34 7.18 6.35C7.21 6.36 7.23 6.38 7.25 6.39C7.27 6.4 7.29 6.42 7.3 6.44C7.32 6.45 7.34 6.47 7.35 6.49C7.36 6.51 7.38 6.53 7.39 6.56C7.39 6.58 7.4 6.6 7.41 6.63C7.41 6.65 7.41 6.67 7.41 6.7C7.41 6.72 7.41 6.75 7.41 6.77C7.4 6.79 7.39 6.82 7.39 6.84C7.38 6.86 7.36 6.88 7.35 6.9C7.34 6.92 7.32 6.94 7.3 6.96L4.97 9.29L5.86 10.18L8.19 7.85C8.21 7.83 8.23 7.82 8.25 7.8C8.27 7.79 8.29 7.78 8.31 7.77C8.34 7.76 8.36 7.75 8.38 7.75C8.41 7.74 8.43 7.74 8.46 7.74C8.48 7.74 8.51 7.74 8.53 7.75C8.55 7.75 8.58 7.76 8.6 7.77C8.62 7.78 8.64 7.79 8.66 7.8C8.68 7.82 8.7 7.83 8.72 7.85C8.74 7.87 8.75 7.89 8.77 7.91C8.78 7.93 8.79 7.95 8.8 7.97C8.81 7.99 8.82 8.02 8.82 8.04C8.83 8.06 8.83 8.09 8.83 8.11C8.83 8.14 8.83 8.16 8.82 8.19C8.82 8.21 8.81 8.23 8.8 8.26C8.79 8.28 8.78 8.3 8.77 8.32C8.75 8.34 8.74 8.36 8.72 8.38L6.39 10.71L7.14 11.47L11.49 7.12L8.02 3.66ZM20.33 15.96L16.89 12.52L12.54 16.87L12.83 17.16L15.17 14.82C15.19 14.81 15.2 14.79 15.22 14.78C15.25 14.76 15.27 14.75 15.29 14.74C15.31 14.73 15.33 14.73 15.36 14.72C15.38 14.72 15.41 14.72 15.43 14.72C15.46 14.72 15.48 14.72 15.5 14.72C15.53 14.73 15.55 14.73 15.57 14.74C15.6 14.75 15.62 14.76 15.64 14.78C15.66 14.79 15.68 14.81 15.69 14.82C15.71 14.84 15.73 14.86 15.74 14.88C15.75 14.9 15.77 14.92 15.77 14.95C15.78 14.97 15.79 14.99 15.8 15.01C15.8 15.04 15.8 15.06 15.8 15.09C15.8 15.11 15.8 15.14 15.8 15.16C15.79 15.18 15.78 15.21 15.77 15.23C15.77 15.25 15.75 15.27 15.74 15.29C15.73 15.31 15.71 15.33 15.69 15.35L13.36 17.68L14.47 18.79L16.8 16.46C16.82 16.44 16.84 16.43 16.86 16.41C16.88 16.4 16.9 16.39 16.92 16.38C16.95 16.37 16.97 16.36 16.99 16.36C17.02 16.35 17.04 16.35 17.07 16.35C17.09 16.35 17.11 16.35 17.14 16.36C17.16 16.36 17.19 16.37 17.21 16.38C17.23 16.39 17.25 16.4 17.27 16.41C17.29 16.43 17.31 16.44 17.33 16.46C17.35 16.48 17.36 16.49 17.37 16.52C17.39 16.54 17.4 16.56 17.41 16.58C17.42 16.6 17.43 16.62 17.43 16.65C17.44 16.67 17.44 16.7 17.44 16.72C17.44 16.75 17.44 16.77 17.43 16.79C17.43 16.82 17.42 16.84 17.41 16.86C17.4 16.89 17.39 16.91 17.37 16.93C17.36 16.95 17.35 16.97 17.33 16.98L14.99 19.32L16 20.33C16.58 20.91 17.47 20.91 18.04 20.34L20.35 18.02C20.87 17.47 20.9 16.5 20.33 15.96Z" fill="#ED6F21" fill-opacity="1.000000" fill-rule="nonzero"/>
	</g>
</svg>
