<svg width="24.000000" height="24.000000" viewBox="0 0 24 24" fill="none" xmlns="http://www.w3.org/2000/svg" xmlns:xlink="http://www.w3.org/1999/xlink">
	<desc>
			Created with Pixso.
	</desc>
	<defs>
		<clipPath id="clip121_1510">
			<rect width="24.000000" height="24.000000" fill="white" fill-opacity="0"/>
		</clipPath>
	</defs>
	<g clip-path="url(#clip121_1510)">
		<path d="M19.55 18.24C19.5 18.12 19.45 18.03 19.38 17.96C18.89 17.43 18.44 16.49 15.81 16.07C13.57 15.7 13.73 14.39 13.71 14.3C13.72 14.07 13.72 14.1 13.72 14.1C14.48 13.54 15.06 12.77 15.41 11.9C16.05 11.45 16.33 11.39 16.44 10.88C16.44 10.88 16.65 8.95 15.97 8.95C15.97 8.95 15.69 9 15.78 8.55C15.79 8.38 15.8 8.2 15.81 8.02C16.03 7.97 16.17 7.9 16.17 7.9C16.17 7.9 16.84 4.38 13.45 3.25C10.54 2.27 8.66 4.46 7.56 5.58C6.78 6.36 5.75 6.5 5.75 6.5C5.75 6.5 6.3 7.45 8.24 7.79C8.24 8.04 8.25 8.27 8.25 8.45C8.34 8.91 7.97 8.91 7.97 8.91C7.4 8.87 7.65 10.83 7.65 10.83C7.74 11.32 7.62 11.56 8.47 11.94C8.81 12.77 9.44 13.45 10.25 13.85C10.27 14.31 10.3 13.69 10.31 14.16C10.23 14.11 10.5 15.64 7.87 16.07C5.24 16.5 4.61 17.83 4.54 17.96C4.47 18.1 4.38 18.22 4.32 18.41C3.94 19.68 4.91 20.95 6.23 20.95L17.7 20.95C19.1 20.95 20.09 19.53 19.55 18.24ZM13.88 17.71C13.88 17.9 13.67 18.02 13.51 17.93L12.22 17.18C12.16 17.25 12.09 17.28 12.01 17.28C11.92 17.28 11.85 17.25 11.79 17.18L10.51 17.93C10.34 18.02 10.13 17.9 10.13 17.71L10.13 16.08C10.13 15.89 10.34 15.77 10.51 15.86L11.77 16.6C11.83 16.52 11.92 16.47 12.01 16.47C12.1 16.47 12.18 16.52 12.25 16.6L13.51 15.86C13.68 15.77 13.89 15.89 13.89 16.08L13.89 17.71L13.88 17.71Z" fill="#ED6F21" fill-opacity="1.000000" fill-rule="nonzero"/>
	</g>
</svg>
