<svg width="24.000000" height="24.000000" viewBox="0 0 24 24" fill="none" xmlns="http://www.w3.org/2000/svg" xmlns:xlink="http://www.w3.org/1999/xlink">
	<desc>
			Created with Pixso.
	</desc>
	<defs>
		<clipPath id="clip53_807">
			<rect width="24.000000" height="24.000000" fill="white" fill-opacity="0"/>
		</clipPath>
	</defs>
	<g clip-path="url(#clip53_807)">
		<path d="M21.99 9.84L12.77 2.08C12.76 2.08 12.76 2.08 12.76 2.08C12.75 2.07 12.74 2.06 12.73 2.06C12.73 2.05 12.72 2.05 12.72 2.05C12.71 2.04 12.7 2.03 12.68 2.02C12.68 2.02 12.68 2.02 12.68 2.02C12.66 2.01 12.65 2 12.64 1.99C12.21 1.72 11.63 1.75 11.24 2.09L2.01 9.84C1.53 10.25 1.48 10.95 1.9 11.41C2.32 11.88 3.06 11.93 3.54 11.52L4.33 10.85L4.33 17.4C4.33 18.94 5.64 20.19 7.24 20.19L8.97 20.19C9.61 20.19 10.13 19.69 10.13 19.08L10.13 13.81C10.13 13.5 10.39 13.25 10.72 13.25L13.28 13.25C13.61 13.25 13.87 13.5 13.87 13.81L13.87 18.94C13.87 19.02 13.88 19.1 13.9 19.17L13.93 19.3C14.04 19.82 14.51 20.19 15.06 20.19L16.76 20.19C18.37 20.19 19.67 18.94 19.67 17.4L19.67 10.85L20.47 11.52C20.69 11.7 20.96 11.8 21.23 11.8C21.55 11.8 21.87 11.67 22.1 11.41C22.52 10.95 22.47 10.25 21.99 9.84Z" fill="#000000" fill-opacity="0.400000" fill-rule="nonzero"/>
	</g>
</svg>
