<svg width="24.000000" height="24.000000" viewBox="0 0 24 24" fill="none" xmlns="http://www.w3.org/2000/svg" xmlns:xlink="http://www.w3.org/1999/xlink">
	<desc>
			Created with Pixso.
	</desc>
	<defs>
		<clipPath id="clip53_849">
			<rect width="22.000000" height="22.000000" transform="translate(1.000000 1.000000)" fill="white" fill-opacity="0"/>
		</clipPath>
		<clipPath id="clip53_848">
			<rect width="24.000000" height="24.000000" fill="white" fill-opacity="0"/>
		</clipPath>
	</defs>
	<g clip-path="url(#clip53_848)">
		<g clip-path="url(#clip53_849)">
			<path d="M1 1L23 1L23 23L1 23L1 1Z" fill="#FFFFFF" fill-opacity="1.000000" fill-rule="nonzero"/>
			<path d="M12 3.06C15.41 3.06 18.18 5.83 18.18 9.25C18.18 10.69 17.68 12.06 16.8 13.14L16.74 13.22L16.83 13.28C17.1 13.46 17.35 13.66 17.6 13.88C17.84 14.1 18.08 14.32 18.29 14.57C18.51 14.81 18.72 15.06 18.91 15.33C19.09 15.6 19.27 15.87 19.43 16.16C19.58 16.44 19.72 16.74 19.85 17.04C19.97 17.34 20.07 17.65 20.16 17.97C20.25 18.28 20.32 18.6 20.37 18.92C20.42 19.24 20.45 19.57 20.47 19.89L20.47 20.07L20.47 20.24C20.47 20.28 20.47 20.33 20.46 20.37C20.45 20.42 20.44 20.46 20.42 20.5C20.41 20.55 20.39 20.59 20.36 20.62C20.34 20.66 20.31 20.7 20.28 20.73C20.24 20.76 20.21 20.79 20.17 20.82C20.13 20.84 20.09 20.86 20.05 20.88C20.01 20.9 19.97 20.91 19.92 20.92C19.88 20.93 19.83 20.93 19.79 20.93L4.2 20.93C4.16 20.93 4.11 20.93 4.07 20.92C4.02 20.91 3.98 20.9 3.94 20.88C3.9 20.86 3.86 20.84 3.82 20.82C3.78 20.79 3.75 20.76 3.72 20.73C3.69 20.7 3.66 20.66 3.63 20.63C3.61 20.59 3.59 20.55 3.57 20.51C3.55 20.47 3.54 20.42 3.53 20.38C3.52 20.33 3.52 20.29 3.52 20.25C3.52 17.42 4.91 14.84 7.16 13.28L7.25 13.22L7.19 13.14C6.98 12.88 6.79 12.6 6.62 12.31C6.45 12.02 6.31 11.71 6.19 11.39C6.07 11.08 5.98 10.75 5.92 10.42C5.86 10.09 5.82 9.76 5.81 9.42L5.81 9.25C5.81 5.83 8.58 3.06 12 3.06ZM10.85 9.25L9.47 9.25L9.48 9.35C9.48 9.43 9.49 9.51 9.5 9.59C9.51 9.67 9.52 9.75 9.54 9.83C9.56 9.91 9.58 9.99 9.61 10.07C9.64 10.14 9.67 10.22 9.7 10.29C9.73 10.37 9.77 10.44 9.81 10.51C9.85 10.58 9.9 10.65 9.94 10.72C9.99 10.78 10.04 10.85 10.1 10.91C10.15 10.97 10.21 11.03 10.27 11.08C10.32 11.14 10.39 11.19 10.45 11.24C10.52 11.29 10.58 11.34 10.65 11.38C10.72 11.43 10.79 11.47 10.86 11.5C10.94 11.54 11.01 11.57 11.09 11.6C11.16 11.63 11.24 11.66 11.32 11.68C11.4 11.7 11.48 11.72 11.56 11.73C11.64 11.75 11.72 11.76 11.8 11.76C11.88 11.77 11.96 11.77 12.05 11.77C12.13 11.77 12.21 11.76 12.29 11.75C12.37 11.74 12.45 11.73 12.53 11.71C12.61 11.7 12.69 11.67 12.77 11.65C12.84 11.63 12.92 11.6 13 11.56C13.07 11.53 13.14 11.5 13.22 11.46C13.29 11.42 13.36 11.37 13.42 11.33C13.49 11.28 13.56 11.23 13.62 11.18C13.68 11.13 13.74 11.07 13.8 11.01C13.85 10.95 13.91 10.89 13.96 10.83C14.01 10.77 14.06 10.7 14.1 10.63C14.15 10.56 14.19 10.49 14.23 10.42C14.27 10.35 14.3 10.28 14.33 10.2C14.36 10.12 14.39 10.05 14.41 9.97C14.43 9.89 14.45 9.81 14.47 9.73C14.49 9.65 14.5 9.57 14.5 9.49C14.51 9.41 14.52 9.33 14.52 9.25L13.14 9.25L13.14 9.32C13.13 9.39 13.12 9.47 13.1 9.54C13.08 9.61 13.06 9.68 13.03 9.74C13 9.81 12.96 9.87 12.91 9.93C12.87 9.99 12.82 10.05 12.77 10.1C12.71 10.15 12.65 10.19 12.59 10.23C12.53 10.27 12.46 10.3 12.39 10.32C12.32 10.35 12.25 10.37 12.18 10.38C12.1 10.39 12.03 10.4 11.96 10.39C11.88 10.39 11.81 10.38 11.74 10.36C11.67 10.35 11.6 10.32 11.53 10.3C11.46 10.27 11.4 10.23 11.34 10.19C11.28 10.14 11.22 10.1 11.17 10.04C11.12 9.99 11.07 9.93 11.03 9.87C10.99 9.81 10.96 9.74 10.93 9.68C10.9 9.61 10.88 9.54 10.87 9.46C10.86 9.39 10.85 9.32 10.85 9.25Z" fill="#ED6F21" fill-opacity="1.000000" fill-rule="nonzero"/>
		</g>
	</g>
</svg>
