<svg width="32.000061" height="32.000000" viewBox="0 0 32.0001 32" fill="none" xmlns="http://www.w3.org/2000/svg" xmlns:xlink="http://www.w3.org/1999/xlink">
	<desc>
			Created with Pixso.
	</desc>
	<defs/>
	<rect width="32.000053" height="32.000000" fill="#FFFFFF" fill-opacity="0"/>
	<path d="M0 16C0 24.83 7.16 32 16 32C24.83 32 32 24.83 32 16C32 7.16 24.83 0 16 0C7.16 0 0 7.16 0 16Z" fill="#ED6F21" fill-opacity="1.000000" fill-rule="nonzero"/>
	<path d="M16 32C24.83 32 32 24.83 32 16C32 7.16 24.83 0 16 0C7.16 0 0 7.16 0 16C0 24.83 7.16 32 16 32Z" stroke="#000000" stroke-opacity="0" stroke-width="1.000000"/>
	<path d="M24.16 10.09L21.88 7.81C21.3 7.23 20.41 7.24 19.83 7.82L18.7 8.95L23.05 13.29L24.16 12.19C24.74 11.59 24.73 10.67 24.16 10.09ZM8.28 19.38C8.07 19.7 7.77 21.1 7.39 23.48L7.39 23.51C7.39 23.8 7.5 24.09 7.69 24.31C7.86 24.53 8.2 24.63 8.47 24.6L8.5 24.6C10.79 24.24 12.17 23.95 12.59 23.7L8.28 19.38ZM22.52 13.81L18.18 9.46L16 11.63L11.65 15.98L8.81 18.82L13.16 23.17L14.22 22.11L20.54 15.79L22.73 13.6L22.52 13.81ZM12.02 7.66C11.44 7.08 10.55 7.08 9.96 7.66L7.66 9.98C7.07 10.57 7.12 11.43 7.69 12.01L8.44 12.77L10.78 10.44C10.8 10.42 10.82 10.4 10.84 10.39C10.86 10.38 10.88 10.36 10.9 10.35C10.92 10.34 10.95 10.34 10.97 10.33C10.99 10.33 11.02 10.33 11.04 10.33C11.07 10.33 11.09 10.33 11.11 10.33C11.14 10.34 11.16 10.34 11.18 10.35C11.21 10.36 11.23 10.38 11.25 10.39C11.27 10.4 11.29 10.42 11.3 10.44C11.32 10.45 11.34 10.47 11.35 10.49C11.36 10.51 11.38 10.53 11.39 10.56C11.39 10.58 11.4 10.6 11.41 10.63C11.41 10.65 11.41 10.67 11.41 10.7C11.41 10.72 11.41 10.75 11.41 10.77C11.4 10.79 11.39 10.82 11.39 10.84C11.38 10.86 11.36 10.88 11.35 10.9C11.34 10.92 11.32 10.94 11.3 10.96L8.97 13.29L9.86 14.18L12.19 11.85C12.21 11.83 12.23 11.82 12.25 11.8C12.27 11.79 12.29 11.78 12.31 11.77C12.34 11.76 12.36 11.75 12.38 11.75C12.41 11.74 12.43 11.74 12.46 11.74C12.48 11.74 12.51 11.74 12.53 11.75C12.55 11.75 12.58 11.76 12.6 11.77C12.62 11.78 12.64 11.79 12.66 11.8C12.68 11.82 12.7 11.83 12.72 11.85C12.74 11.87 12.75 11.89 12.77 11.91C12.78 11.93 12.79 11.95 12.8 11.97C12.81 11.99 12.82 12.02 12.82 12.04C12.83 12.06 12.83 12.09 12.83 12.11C12.83 12.14 12.83 12.16 12.82 12.19C12.82 12.21 12.81 12.23 12.8 12.26C12.79 12.28 12.78 12.3 12.77 12.32C12.75 12.34 12.74 12.36 12.72 12.38L10.39 14.71L11.14 15.47L15.49 11.12L12.02 7.66ZM24.33 19.96L20.89 16.52L16.54 20.87L16.83 21.16L19.17 18.82C19.19 18.81 19.2 18.79 19.22 18.78C19.25 18.76 19.27 18.75 19.29 18.74C19.31 18.73 19.33 18.73 19.36 18.72C19.38 18.72 19.41 18.72 19.43 18.72C19.46 18.72 19.48 18.72 19.5 18.72C19.53 18.73 19.55 18.73 19.57 18.74C19.6 18.75 19.62 18.76 19.64 18.78C19.66 18.79 19.68 18.81 19.69 18.82C19.71 18.84 19.73 18.86 19.74 18.88C19.75 18.9 19.77 18.92 19.77 18.95C19.78 18.97 19.79 18.99 19.8 19.01C19.8 19.04 19.8 19.06 19.8 19.09C19.8 19.11 19.8 19.14 19.8 19.16C19.79 19.18 19.78 19.21 19.77 19.23C19.77 19.25 19.75 19.27 19.74 19.29C19.73 19.31 19.71 19.33 19.69 19.35L17.36 21.68L18.47 22.79L20.8 20.46C20.82 20.44 20.84 20.43 20.86 20.41C20.88 20.4 20.9 20.39 20.92 20.38C20.95 20.37 20.97 20.36 20.99 20.36C21.02 20.35 21.04 20.35 21.07 20.35C21.09 20.35 21.11 20.35 21.14 20.36C21.16 20.36 21.19 20.37 21.21 20.38C21.23 20.39 21.25 20.4 21.27 20.41C21.29 20.43 21.31 20.44 21.33 20.46C21.35 20.48 21.36 20.49 21.37 20.52C21.39 20.54 21.4 20.56 21.41 20.58C21.42 20.6 21.43 20.62 21.43 20.65C21.44 20.67 21.44 20.7 21.44 20.72C21.44 20.75 21.44 20.77 21.43 20.79C21.43 20.82 21.42 20.84 21.41 20.86C21.4 20.89 21.39 20.91 21.37 20.93C21.36 20.95 21.35 20.97 21.33 20.98L18.99 23.32L20 24.33C20.58 24.91 21.47 24.91 22.04 24.34L24.35 22.02C24.87 21.47 24.9 20.5 24.33 19.96Z" fill="#FFFFFF" fill-opacity="1.000000" fill-rule="nonzero"/>
</svg>
