<svg width="32.000061" height="32.000000" viewBox="0 0 32.0001 32" fill="none" xmlns="http://www.w3.org/2000/svg" xmlns:xlink="http://www.w3.org/1999/xlink">
	<desc>
			Created with Pixso.
	</desc>
	<defs>
		<clipPath id="clip252_1573">
			<rect width="24.000000" height="24.000000" transform="translate(4.000000 3.000000)" fill="white" fill-opacity="0"/>
		</clipPath>
		<clipPath id="clip252_1530">
			<rect width="32.000000" height="32.000000" fill="white" fill-opacity="0"/>
		</clipPath>
	</defs>
	<rect width="32.000053" height="32.000000" fill="#FFFFFF" fill-opacity="0"/>
	<path d="M0 16C0 24.83 7.16 32 16 32C24.83 32 32 24.83 32 16C32 7.16 24.83 0 16 0C7.16 0 0 7.16 0 16Z" fill="#ED6F21" fill-opacity="1.000000" fill-rule="nonzero"/>
	<path d="M16 32C24.83 32 32 24.83 32 16C32 7.16 24.83 0 16 0C7.16 0 0 7.16 0 16C0 24.83 7.16 32 16 32Z" stroke="#000000" stroke-opacity="0" stroke-width="1.000000"/>
	<g clip-path="url(#clip252_1530)">
		<g clip-path="url(#clip252_1573)">
			<path d="M23.55 21.24C23.5 21.12 23.45 21.03 23.38 20.96C22.89 20.43 22.44 19.5 19.81 19.07C17.57 18.7 17.73 17.39 17.71 17.3C17.72 17.07 17.72 17.1 17.72 17.1C18.48 16.54 19.06 15.77 19.41 14.9C20.05 14.45 20.33 14.39 20.44 13.88C20.44 13.88 20.65 11.95 19.97 11.95C19.97 11.95 19.69 12 19.78 11.55C19.79 11.38 19.8 11.2 19.81 11.02C20.03 10.97 20.17 10.9 20.17 10.9C20.17 10.9 20.84 7.38 17.45 6.25C14.54 5.27 12.66 7.46 11.56 8.58C10.78 9.36 9.75 9.5 9.75 9.5C9.75 9.5 10.3 10.45 12.24 10.79C12.24 11.04 12.25 11.27 12.25 11.45C12.34 11.91 11.97 11.91 11.97 11.91C11.4 11.87 11.65 13.83 11.65 13.83C11.74 14.32 11.62 14.56 12.47 14.94C12.81 15.77 13.44 16.45 14.25 16.85C14.27 17.31 14.3 16.69 14.31 17.16C14.23 17.11 14.5 18.64 11.87 19.07C9.24 19.5 8.61 20.83 8.54 20.96C8.47 21.1 8.38 21.22 8.32 21.41C7.94 22.68 8.91 23.95 10.23 23.95L21.7 23.95C23.1 23.95 24.09 22.53 23.55 21.24ZM17.88 20.71C17.88 20.9 17.67 21.02 17.51 20.93L16.22 20.18C16.16 20.25 16.09 20.28 16.01 20.28C15.92 20.28 15.85 20.25 15.79 20.18L14.51 20.93C14.34 21.02 14.13 20.9 14.13 20.71L14.13 19.08C14.13 18.89 14.34 18.77 14.51 18.86L15.77 19.6C15.83 19.52 15.92 19.47 16.01 19.47C16.1 19.47 16.18 19.52 16.25 19.6L17.51 18.86C17.68 18.77 17.89 18.89 17.89 19.08L17.89 20.71L17.88 20.71Z" fill="#FFFFFF" fill-opacity="1.000000" fill-rule="nonzero"/>
		</g>
	</g>
</svg>
