<svg width="20.000000" height="20.000000" viewBox="0 0 20 20" fill="none" xmlns="http://www.w3.org/2000/svg" xmlns:xlink="http://www.w3.org/1999/xlink">
	<desc>
			Created with Pixso.
	</desc>
	<defs>
		<clipPath id="clip252_1557">
			<rect width="15.390626" height="15.390626" transform="translate(2.304688 2.304688)" fill="white" fill-opacity="0"/>
		</clipPath>
		<clipPath id="clip252_1552">
			<rect width="20.000000" height="20.000000" fill="white" fill-opacity="0"/>
		</clipPath>
	</defs>
	<g clip-path="url(#clip252_1552)">
		<rect rx="4.000000" width="20.000004" height="20.000000" fill="#ED6F21" fill-opacity="1.000000"/>
		<circle cx="10.000000" cy="10.000000" r="7.695313" fill="#FFFFFF" fill-opacity="1.000000"/>
		<g clip-path="url(#clip252_1557)">
			<path d="M5.94 8.64L5.94 10.62C5.94 10.8 6.07 10.97 6.25 11C6.28 11 6.3 11.01 6.33 11C6.36 11 6.38 11 6.41 10.99C6.43 10.99 6.46 10.98 6.48 10.96C6.51 10.95 6.53 10.94 6.55 10.92C6.57 10.9 6.59 10.88 6.61 10.86C6.62 10.84 6.64 10.82 6.65 10.79C6.66 10.77 6.67 10.75 6.67 10.72C6.68 10.69 6.68 10.67 6.68 10.64L6.68 9.56C6.68 9.44 6.78 9.35 6.9 9.35C7.02 9.35 7.11 9.44 7.11 9.56L7.11 10.2C7.11 10.38 7.24 10.55 7.42 10.57C7.53 10.59 7.64 10.56 7.72 10.5C7.8 10.43 7.85 10.32 7.85 10.22L7.85 9.56C7.85 9.44 7.95 9.35 8.07 9.35C8.19 9.35 8.28 9.44 8.28 9.56L8.28 9.86C8.28 9.98 8.38 10.08 8.5 10.08C8.62 10.08 8.72 9.98 8.72 9.86L8.72 9.63C8.72 9.48 8.85 9.35 9.01 9.35L9.17 9.35C9.32 9.35 9.45 9.48 9.45 9.63C9.45 9.83 9.62 10 9.82 10C10.03 10 10.19 9.83 10.19 9.63L10.19 9.35L12.86 9.35L12.86 8.27L5.94 8.27L5.94 8.64Z" fill="#FFB74D" fill-opacity="1.000000" fill-rule="nonzero"/>
			<path d="M13.5 6.38L13.23 6.38L13.23 7.14L13.5 7.14C13.71 7.14 13.88 7.31 13.88 7.52L13.88 9.59C13.88 9.8 13.71 9.97 13.5 9.97L11.43 9.97C10.78 9.97 10.26 10.48 10.26 11.11L10.26 11.48L11.04 11.48L11.04 11.11C11.04 10.9 11.21 10.73 11.43 10.73L13.5 10.73C14.14 10.73 14.66 10.22 14.66 9.59L14.66 7.52C14.66 6.89 14.14 6.38 13.5 6.38Z" fill="#607D8B" fill-opacity="1.000000" fill-rule="nonzero"/>
			<path d="M10.15 11.48C10.13 11.48 10.12 11.49 10.1 11.49C10.09 11.5 10.07 11.51 10.06 11.52C10.05 11.53 10.04 11.54 10.04 11.56C10.03 11.57 10.03 11.59 10.03 11.6C10.03 11.67 10.08 11.72 10.15 11.72L11.15 11.72C11.16 11.72 11.18 11.72 11.19 11.72C11.21 11.71 11.22 11.7 11.23 11.69C11.24 11.68 11.25 11.67 11.26 11.65C11.26 11.64 11.27 11.62 11.27 11.6C11.27 11.59 11.26 11.57 11.26 11.56C11.25 11.54 11.24 11.53 11.23 11.52C11.22 11.51 11.21 11.5 11.19 11.49C11.18 11.49 11.16 11.48 11.15 11.48L10.15 11.48Z" fill="#FFB74D" fill-opacity="1.000000" fill-rule="nonzero"/>
			<path d="M9.87 13.68C9.79 14.15 10.16 14.58 10.65 14.58C11.13 14.58 11.5 14.15 11.42 13.68L11.1 11.72L10.19 11.72L9.87 13.68Z" fill="#ED6F21" fill-opacity="1.000000" fill-rule="nonzero"/>
			<path d="M5.99 8.1C5.98 8.1 5.96 8.1 5.94 8.09L5.94 8.27L12.86 8.27L12.86 8.09C12.84 8.1 12.82 8.1 12.81 8.1L5.99 8.1Z" fill="#ED6F21" fill-opacity="1.000000" fill-rule="nonzero"/>
			<path d="M13.23 5.83C13.23 5.6 13.04 5.41 12.81 5.41L5.99 5.41C5.76 5.41 5.57 5.6 5.57 5.83L5.57 7.68C5.57 7.9 5.73 8.07 5.94 8.09C5.96 8.1 5.97 8.11 5.99 8.11L12.81 8.11C12.82 8.11 12.84 8.1 12.86 8.09C13.07 8.07 13.23 7.89 13.23 7.68L13.23 5.83Z" fill="#FFB74D" fill-opacity="1.000000" fill-rule="nonzero"/>
			<path d="M5.33 6.43L5.57 6.43L5.57 7.08L5.33 7.08L5.33 6.43Z" fill="#ED6F21" fill-opacity="1.000000" fill-rule="nonzero"/>
		</g>
	</g>
</svg>
