<svg width="72.000000" height="72.000000" viewBox="0 0 72 72" fill="none" xmlns="http://www.w3.org/2000/svg" xmlns:xlink="http://www.w3.org/1999/xlink">
	<desc>
			Created with Pixso.
	</desc>
	<defs>
		<clipPath id="clip123_2708">
			<rect width="55.406250" height="55.406250" transform="translate(8.296875 8.296875)" fill="white" fill-opacity="0"/>
		</clipPath>
		<clipPath id="clip123_1936">
			<rect rx="16.000000" width="72.000000" height="72.000000" fill="white" fill-opacity="0"/>
		</clipPath>
	</defs>
	<rect rx="16.000000" width="72.000000" height="72.000000" fill="#4B5CC4" fill-opacity="1.000000"/>
	<g clip-path="url(#clip123_1936)">
		<rect width="72.000008" height="72.000000" fill="#ED6F21" fill-opacity="1.000000"/>
		<circle cx="36.000000" cy="36.000000" r="27.703125" fill="#FFFFFF" fill-opacity="1.000000"/>
		<g clip-path="url(#clip123_2708)">
			<path d="M21.4 31.11L21.4 38.25C21.4 38.9 21.86 39.51 22.51 39.61C22.61 39.63 22.7 39.63 22.8 39.63C22.9 39.62 22.99 39.61 23.08 39.59C23.18 39.56 23.27 39.53 23.35 39.48C23.44 39.44 23.52 39.39 23.59 39.32C23.67 39.26 23.73 39.19 23.79 39.12C23.85 39.04 23.9 38.96 23.94 38.87C23.98 38.79 24.02 38.7 24.04 38.6C24.06 38.51 24.07 38.41 24.07 38.32L24.07 34.43C24.07 34.01 24.42 33.67 24.84 33.67C25.27 33.67 25.61 34.01 25.61 34.43L25.61 36.72C25.61 37.37 26.07 37.98 26.72 38.08C27.11 38.15 27.5 38.05 27.8 37.8C28.11 37.55 28.28 37.18 28.29 36.79L28.29 34.43C28.29 34.01 28.63 33.67 29.05 33.67C29.48 33.67 29.83 34.01 29.83 34.43L29.83 35.5C29.83 35.93 30.18 36.28 30.62 36.28C31.06 36.28 31.42 35.93 31.42 35.5L31.42 34.68C31.42 34.13 31.88 33.67 32.45 33.67L33.01 33.67C33.58 33.67 34.04 34.13 34.04 34.68C34.04 35.41 34.63 36 35.37 36C36.11 36 36.71 35.41 36.71 34.68L36.71 33.67L46.3 33.67L46.3 29.78L21.4 29.78L21.4 31.11Z" fill="#FFB74D" fill-opacity="1.000000" fill-rule="nonzero"/>
			<path d="M48.6 22.97L47.63 22.97L47.63 25.72L48.6 25.72C49.37 25.72 50 26.34 50 27.09L50 34.52C50 35.28 49.37 35.9 48.6 35.9L41.14 35.9C38.83 35.9 36.94 37.75 36.94 40.02L36.94 41.35L39.74 41.35L39.74 40.02C39.74 39.26 40.37 38.65 41.14 38.65L48.6 38.65C50.91 38.65 52.8 36.8 52.8 34.52L52.8 27.09C52.8 24.82 50.91 22.97 48.6 22.97Z" fill="#607D8B" fill-opacity="1.000000" fill-rule="nonzero"/>
			<path d="M36.55 41.35C36.49 41.35 36.44 41.36 36.38 41.38C36.33 41.41 36.28 41.44 36.24 41.48C36.2 41.52 36.17 41.57 36.14 41.62C36.12 41.67 36.11 41.73 36.11 41.79C36.11 42.03 36.31 42.22 36.55 42.22L40.13 42.22C40.19 42.22 40.25 42.21 40.3 42.19C40.36 42.17 40.4 42.14 40.45 42.09C40.49 42.05 40.52 42.01 40.54 41.95C40.56 41.9 40.58 41.84 40.58 41.79C40.58 41.73 40.56 41.67 40.54 41.62C40.52 41.57 40.49 41.52 40.45 41.48C40.4 41.44 40.36 41.41 40.3 41.38C40.25 41.36 40.19 41.35 40.13 41.35L36.55 41.35Z" fill="#FFB74D" fill-opacity="1.000000" fill-rule="nonzero"/>
			<path d="M35.54 49.26C35.26 50.95 36.59 52.49 38.34 52.49C40.09 52.49 41.42 50.95 41.14 49.26L39.97 42.22L36.71 42.22L35.54 49.26Z" fill="#ED6F21" fill-opacity="1.000000" fill-rule="nonzero"/>
			<path d="M21.59 29.19C21.52 29.19 21.46 29.16 21.4 29.15L21.4 29.78L46.31 29.78L46.31 29.15C46.24 29.16 46.18 29.19 46.11 29.19L21.59 29.19Z" fill="#ED6F21" fill-opacity="1.000000" fill-rule="nonzero"/>
			<path d="M47.63 21.02C47.63 20.18 46.95 19.5 46.11 19.5L21.59 19.5C20.75 19.5 20.07 20.18 20.07 21.02L20.07 27.67C20.07 28.44 20.65 29.05 21.4 29.15C21.46 29.16 21.52 29.19 21.59 29.19L46.11 29.19C46.18 29.19 46.24 29.16 46.3 29.15C47.06 29.06 47.62 28.43 47.63 27.67L47.63 21.02Z" fill="#FFB74D" fill-opacity="1.000000" fill-rule="nonzero"/>
			<path d="M19.19 23.17L20.07 23.17L20.07 25.52L19.19 25.52L19.19 23.17Z" fill="#ED6F21" fill-opacity="1.000000" fill-rule="nonzero"/>
		</g>
	</g>
</svg>
