<svg width="24.000000" height="24.000000" viewBox="0 0 24 24" fill="none" xmlns="http://www.w3.org/2000/svg" xmlns:xlink="http://www.w3.org/1999/xlink">
	<desc>
			Created with Pixso.
	</desc>
	<defs>
		<clipPath id="clip130_2767">
			<rect width="24.000000" height="24.000000" fill="white" fill-opacity="0"/>
		</clipPath>
	</defs>
	<g clip-path="url(#clip130_2767)">
		<path d="M19.41 3.07L16.45 3.07C16.16 2.16 15.31 1.49 14.3 1.49L9.74 1.49C8.73 1.49 7.87 2.16 7.59 3.07L4.59 3.07C3.71 3.07 3 3.79 3 4.67L3 20.86C3 21.74 3.71 22.46 4.59 22.46L19.4 22.46C20.28 22.46 21 21.74 21 20.86L21 4.67C21 3.79 20.28 3.07 19.41 3.07ZM12.02 16.97C12.02 17.38 11.68 17.72 11.27 17.72L7.54 17.72C7.13 17.72 6.8 17.38 6.8 16.97C6.8 16.56 7.13 16.22 7.54 16.22L11.27 16.22C11.68 16.22 12.02 16.56 12.02 16.97ZM17.28 12.8C17.28 13.21 16.94 13.55 16.53 13.55L7.51 13.55C7.09 13.55 6.76 13.21 6.76 12.8C6.76 12.39 7.09 12.05 7.51 12.05L16.53 12.05C16.95 12.05 17.28 12.39 17.28 12.8ZM17.28 8.63C17.28 9.04 16.94 9.38 16.53 9.38L7.51 9.38C7.09 9.38 6.76 9.04 6.76 8.63C6.76 8.22 7.09 7.88 7.51 7.88L16.53 7.88C16.95 7.88 17.28 8.22 17.28 8.63Z" fill="#ED6F21" fill-opacity="1.000000" fill-rule="nonzero"/>
	</g>
</svg>
