<svg width="20.403625" height="19.729492" viewBox="0 0 20.4036 19.7295" fill="none" xmlns="http://www.w3.org/2000/svg" xmlns:xlink="http://www.w3.org/1999/xlink">
	<desc>
			Created with Pixso.
	</desc>
	<defs/>
	<path id="path" d="M17.87 0L2.52 0C2.43 0 2.35 0 2.27 0.01C2.19 0.02 2.1 0.03 2.02 0.04C1.94 0.06 1.86 0.08 1.78 0.1C1.7 0.13 1.63 0.16 1.55 0.19C1.47 0.22 1.4 0.25 1.33 0.29C1.25 0.33 1.18 0.37 1.11 0.42C1.05 0.47 0.98 0.51 0.92 0.57C0.85 0.62 0.79 0.67 0.73 0.73C0.67 0.79 0.62 0.85 0.57 0.92C0.51 0.98 0.47 1.05 0.42 1.11C0.37 1.18 0.33 1.25 0.29 1.33C0.25 1.4 0.22 1.47 0.19 1.55C0.16 1.63 0.13 1.7 0.1 1.78C0.08 1.86 0.06 1.94 0.04 2.02C0.03 2.1 0.02 2.19 0.01 2.27C0 2.35 0 2.43 0 2.52L0 14.66C0 14.74 0 14.83 0.01 14.91C0.02 14.99 0.03 15.07 0.04 15.15C0.06 15.23 0.08 15.31 0.1 15.39C0.13 15.47 0.16 15.55 0.19 15.62C0.22 15.7 0.25 15.78 0.29 15.85C0.33 15.92 0.37 15.99 0.42 16.06C0.47 16.13 0.51 16.2 0.57 16.26C0.62 16.32 0.67 16.38 0.73 16.44C0.79 16.5 0.85 16.56 0.92 16.61C0.98 16.66 1.05 16.71 1.11 16.76C1.18 16.8 1.25 16.84 1.33 16.88C1.4 16.92 1.47 16.96 1.55 16.99C1.63 17.02 1.7 17.05 1.78 17.07C1.86 17.1 1.94 17.12 2.02 17.13C2.1 17.15 2.19 17.16 2.27 17.17C2.35 17.18 2.43 17.18 2.52 17.18L7.36 17.18C7.48 17.18 7.59 17.2 7.69 17.25C7.8 17.3 7.89 17.37 7.97 17.45L9.78 19.45C9.82 19.49 9.86 19.53 9.91 19.56C9.95 19.6 10 19.63 10.05 19.65C10.1 19.67 10.16 19.69 10.21 19.7C10.27 19.72 10.32 19.72 10.38 19.72C10.43 19.73 10.49 19.72 10.54 19.71C10.6 19.7 10.65 19.68 10.71 19.66C10.76 19.64 10.81 19.62 10.85 19.59C10.9 19.55 10.94 19.52 10.98 19.48L13.01 17.43C13.09 17.35 13.18 17.29 13.28 17.25C13.38 17.21 13.49 17.19 13.6 17.19L17.88 17.19C17.96 17.19 18.04 17.18 18.13 17.17C18.21 17.17 18.29 17.15 18.37 17.14C18.45 17.12 18.53 17.1 18.61 17.08C18.69 17.05 18.77 17.03 18.84 16.99C18.92 16.96 18.99 16.93 19.07 16.89C19.14 16.85 19.21 16.81 19.28 16.76C19.35 16.72 19.41 16.67 19.48 16.61C19.54 16.56 19.6 16.51 19.66 16.45C19.72 16.39 19.77 16.33 19.83 16.26C19.88 16.2 19.93 16.13 19.97 16.07C20.02 16 20.06 15.93 20.1 15.85C20.14 15.78 20.18 15.71 20.21 15.63C20.24 15.55 20.27 15.48 20.29 15.4C20.31 15.32 20.33 15.24 20.35 15.16C20.37 15.08 20.38 15 20.39 14.91C20.39 14.83 20.4 14.75 20.4 14.67L20.4 2.52C20.4 2.44 20.39 2.35 20.39 2.27C20.38 2.19 20.37 2.11 20.35 2.03C20.33 1.94 20.31 1.86 20.29 1.79C20.27 1.71 20.24 1.63 20.21 1.55C20.18 1.48 20.14 1.4 20.1 1.33C20.06 1.26 20.02 1.18 19.97 1.12C19.93 1.05 19.88 0.98 19.83 0.92C19.77 0.85 19.72 0.79 19.66 0.73C19.6 0.67 19.54 0.62 19.48 0.57C19.41 0.51 19.35 0.47 19.28 0.42C19.21 0.37 19.14 0.33 19.07 0.29C18.99 0.25 18.92 0.22 18.84 0.19C18.76 0.15 18.69 0.13 18.61 0.1C18.53 0.08 18.45 0.06 18.37 0.04C18.29 0.03 18.2 0.01 18.12 0.01C18.04 0 17.96 0 17.87 0ZM4.58 10.36C4.48 10.36 4.38 10.35 4.29 10.33C4.19 10.32 4.1 10.29 4.01 10.25C3.91 10.21 3.83 10.17 3.75 10.11C3.66 10.06 3.59 9.99 3.52 9.92C3.45 9.85 3.39 9.78 3.33 9.7C3.28 9.61 3.23 9.53 3.19 9.44C3.15 9.35 3.12 9.25 3.11 9.15C3.09 9.06 3.08 8.96 3.08 8.86C3.08 8.76 3.09 8.66 3.11 8.57C3.12 8.47 3.15 8.38 3.19 8.29C3.23 8.2 3.27 8.11 3.33 8.03C3.38 7.94 3.45 7.87 3.52 7.8C3.59 7.73 3.66 7.67 3.74 7.61C3.83 7.56 3.91 7.51 4 7.47C4.09 7.43 4.19 7.41 4.29 7.39C4.38 7.37 4.48 7.36 4.58 7.36C4.68 7.36 4.77 7.37 4.87 7.39C4.97 7.41 5.06 7.43 5.15 7.47C5.24 7.51 5.33 7.56 5.41 7.61C5.5 7.67 5.57 7.73 5.64 7.8C5.71 7.87 5.77 7.94 5.83 8.03C5.88 8.11 5.93 8.19 5.97 8.29C6 8.38 6.03 8.47 6.05 8.57C6.07 8.66 6.08 8.76 6.08 8.86C6.08 8.96 6.07 9.06 6.05 9.15C6.03 9.25 6 9.34 5.97 9.44C5.93 9.53 5.88 9.61 5.83 9.69C5.77 9.78 5.71 9.85 5.64 9.92C5.57 9.99 5.5 10.05 5.41 10.11C5.33 10.16 5.25 10.21 5.15 10.25C5.06 10.29 4.97 10.31 4.87 10.33C4.78 10.35 4.68 10.36 4.58 10.36ZM10.29 10.36C10.19 10.36 10.1 10.35 10 10.33C9.9 10.32 9.81 10.29 9.72 10.25C9.63 10.21 9.54 10.17 9.46 10.11C9.38 10.06 9.3 9.99 9.23 9.92C9.16 9.85 9.1 9.78 9.04 9.7C8.99 9.61 8.94 9.53 8.9 9.44C8.87 9.35 8.84 9.25 8.82 9.15C8.8 9.06 8.79 8.96 8.79 8.86C8.79 8.76 8.8 8.66 8.82 8.57C8.84 8.47 8.87 8.38 8.9 8.29C8.94 8.2 8.99 8.11 9.04 8.03C9.1 7.94 9.16 7.87 9.23 7.8C9.3 7.73 9.37 7.67 9.46 7.61C9.54 7.56 9.62 7.51 9.72 7.47C9.81 7.43 9.9 7.41 10 7.39C10.09 7.37 10.19 7.36 10.29 7.36C10.39 7.36 10.49 7.37 10.58 7.39C10.68 7.41 10.77 7.43 10.87 7.47C10.96 7.51 11.04 7.56 11.13 7.61C11.21 7.67 11.28 7.73 11.35 7.8C11.42 7.87 11.49 7.94 11.54 8.03C11.59 8.11 11.64 8.19 11.68 8.29C11.72 8.38 11.75 8.47 11.76 8.57C11.78 8.66 11.79 8.76 11.79 8.86C11.79 8.96 11.78 9.06 11.76 9.15C11.75 9.25 11.72 9.34 11.68 9.44C11.64 9.53 11.6 9.61 11.54 9.69C11.49 9.78 11.42 9.85 11.35 9.92C11.28 9.99 11.21 10.05 11.13 10.11C11.04 10.16 10.96 10.21 10.87 10.25C10.78 10.29 10.68 10.31 10.59 10.33C10.49 10.35 10.39 10.36 10.29 10.36ZM16 10.36C15.9 10.36 15.81 10.35 15.71 10.33C15.61 10.32 15.52 10.29 15.43 10.25C15.34 10.21 15.25 10.17 15.17 10.11C15.09 10.06 15.01 9.99 14.94 9.92C14.87 9.85 14.81 9.78 14.75 9.7C14.7 9.61 14.65 9.53 14.61 9.44C14.58 9.35 14.55 9.25 14.53 9.15C14.51 9.06 14.5 8.96 14.5 8.86C14.5 8.76 14.51 8.66 14.53 8.57C14.55 8.47 14.58 8.38 14.61 8.29C14.65 8.2 14.7 8.11 14.75 8.03C14.81 7.94 14.87 7.87 14.94 7.8C15.01 7.73 15.08 7.67 15.17 7.61C15.25 7.56 15.34 7.51 15.43 7.47C15.52 7.43 15.61 7.41 15.71 7.39C15.81 7.37 15.9 7.36 16 7.36C16.1 7.36 16.2 7.37 16.29 7.39C16.39 7.41 16.49 7.43 16.58 7.47C16.67 7.51 16.75 7.56 16.84 7.61C16.92 7.67 16.99 7.73 17.06 7.8C17.13 7.87 17.2 7.94 17.25 8.03C17.31 8.11 17.35 8.19 17.39 8.29C17.43 8.38 17.46 8.47 17.48 8.57C17.49 8.66 17.5 8.76 17.5 8.86C17.5 8.96 17.49 9.06 17.48 9.15C17.46 9.25 17.43 9.34 17.39 9.44C17.35 9.53 17.31 9.61 17.25 9.69C17.2 9.78 17.13 9.85 17.06 9.92C16.99 9.99 16.92 10.05 16.84 10.11C16.76 10.16 16.67 10.21 16.58 10.25C16.49 10.29 16.39 10.31 16.3 10.33C16.2 10.35 16.1 10.36 16 10.36Z" fill="#F9BC64" fill-opacity="1.000000" fill-rule="nonzero"/>
</svg>
