<svg width="24.000000" height="24.000000" viewBox="0 0 24 24" fill="none" xmlns="http://www.w3.org/2000/svg" xmlns:xlink="http://www.w3.org/1999/xlink">
	<desc>
			Created with Pixso.
	</desc>
	<defs>
		<clipPath id="clip130_2761">
			<rect width="24.000000" height="24.000000" fill="white" fill-opacity="0"/>
		</clipPath>
	</defs>
	<g clip-path="url(#clip130_2761)">
		<path d="M12.01 2C11.73 2 11.51 2.08 11.35 2.24C11.19 2.4 11.07 2.6 10.98 2.82L8.46 8.51L1.68 9.11C1.52 9.14 1.38 9.21 1.25 9.32C1.11 9.43 1.03 9.59 1 9.79C0.97 9.99 1.02 10.18 1.14 10.37C1.27 10.56 1.42 10.73 1.59 10.89L1.84 11.09L2.39 11.56C2.62 11.75 2.88 11.97 3.16 12.2L4.03 12.91C4.72 13.48 5.49 14.12 6.35 14.84L5.61 17.82C5.5 18.2 5.41 18.57 5.31 18.94C5.22 19.31 5.13 19.64 5.06 19.95C4.99 20.25 4.92 20.51 4.86 20.73L4.75 21.15C4.72 21.28 4.74 21.4 4.8 21.52C4.85 21.64 4.95 21.74 5.07 21.83C5.19 21.91 5.33 21.96 5.49 21.99C5.52 21.99 5.55 22 5.59 22C5.71 22 5.82 21.97 5.94 21.91C6.01 21.88 6.15 21.81 6.36 21.7C6.58 21.59 6.83 21.45 7.12 21.28C7.41 21.1 7.74 20.92 8.1 20.72C8.45 20.53 8.82 20.33 9.18 20.13C10.03 19.66 10.97 19.13 12.01 18.54L17.73 21.76L18.05 21.88C18.19 21.93 18.3 21.96 18.37 21.96C18.59 21.96 18.78 21.91 18.96 21.82C19.14 21.73 19.2 21.54 19.16 21.25C19.14 21.2 19.11 21.06 19.07 20.84L18.91 20.05C18.84 19.73 18.77 19.39 18.7 19C18.63 18.62 18.54 18.24 18.46 17.86C18.26 16.95 18.05 15.94 17.8 14.82L22.34 10.87C22.53 10.66 22.68 10.48 22.81 10.33C22.93 10.18 23 10.01 23 9.81C23 9.6 22.94 9.44 22.82 9.34C22.7 9.24 22.5 9.16 22.21 9.09L15.43 8.47L12.98 2.78C12.95 2.72 12.91 2.65 12.85 2.57C12.8 2.48 12.74 2.4 12.67 2.31C12.59 2.23 12.5 2.15 12.4 2.09C12.28 2.03 12.16 2 12.01 2Z" fill="#F9A01E" fill-opacity="1.000000" fill-rule="nonzero"/>
	</g>
</svg>
