<svg width="24.000000" height="24.000000" viewBox="0 0 24 24" fill="none" xmlns="http://www.w3.org/2000/svg" xmlns:xlink="http://www.w3.org/1999/xlink">
	<desc>
			Created with Pixso.
	</desc>
	<defs>
		<clipPath id="clip130_2791">
			<rect width="24.000000" height="24.000000" fill="white" fill-opacity="0"/>
		</clipPath>
	</defs>
	<g clip-path="url(#clip130_2791)">
		<path d="M9.27 22C8.15 21.67 7.11 21.16 6.16 20.47L6.2 18.41C6.2 18.3 6.19 18.19 6.18 18.09C6.16 17.98 6.14 17.88 6.1 17.77C6.07 17.67 6.03 17.57 5.98 17.48C5.93 17.39 5.87 17.3 5.8 17.21C5.74 17.13 5.66 17.05 5.59 16.98C5.51 16.91 5.42 16.84 5.33 16.79C5.24 16.73 5.15 16.68 5.05 16.64C4.95 16.61 4.85 16.57 4.75 16.55L2.76 16.13C2.31 15.04 2.05 13.89 2 12.7L3.6 11.45C3.69 11.39 3.77 11.31 3.84 11.24C3.91 11.16 3.97 11.07 4.03 10.98C4.09 10.89 4.14 10.8 4.18 10.7C4.22 10.6 4.25 10.5 4.27 10.39C4.3 10.29 4.31 10.18 4.32 10.07C4.32 9.97 4.32 9.86 4.31 9.75C4.29 9.65 4.27 9.54 4.24 9.44C4.21 9.34 4.17 9.24 4.12 9.14L3.2 7.3C3.77 6.26 4.49 5.34 5.36 4.55L7.33 5.05C7.43 5.08 7.53 5.09 7.64 5.1C7.74 5.11 7.85 5.11 7.95 5.1C8.06 5.09 8.16 5.07 8.26 5.04C8.37 5.01 8.46 4.97 8.56 4.92C8.65 4.88 8.74 4.82 8.83 4.76C8.92 4.7 9 4.63 9.07 4.55C9.14 4.47 9.21 4.39 9.27 4.3C9.33 4.21 9.38 4.12 9.42 4.02L10.27 2.15C10.84 2.05 11.41 1.99 12 2C12.58 2 13.16 2.05 13.72 2.15L14.57 4.02C14.61 4.12 14.66 4.21 14.72 4.3C14.78 4.39 14.85 4.47 14.92 4.55C15 4.63 15.07 4.7 15.16 4.76C15.25 4.82 15.34 4.88 15.43 4.92C15.53 4.97 15.63 5.01 15.73 5.04C15.83 5.07 15.93 5.09 16.04 5.1C16.14 5.11 16.25 5.11 16.35 5.1C16.46 5.09 16.56 5.08 16.66 5.05L18.63 4.55C19.5 5.34 20.22 6.26 20.79 7.3L19.87 9.14C19.82 9.24 19.78 9.34 19.75 9.44C19.72 9.54 19.7 9.65 19.69 9.75C19.67 9.86 19.67 9.97 19.67 10.07C19.68 10.18 19.69 10.29 19.72 10.39C19.74 10.5 19.77 10.6 19.81 10.7C19.85 10.8 19.9 10.89 19.96 10.98C20.02 11.07 20.08 11.16 20.15 11.24C20.23 11.31 20.3 11.39 20.39 11.45L22 12.7C21.94 13.89 21.68 15.04 21.23 16.13L19.24 16.55C19.14 16.57 19.04 16.6 18.94 16.64C18.84 16.68 18.75 16.73 18.66 16.79C18.57 16.84 18.48 16.91 18.41 16.98C18.33 17.05 18.25 17.13 18.19 17.21C18.12 17.3 18.06 17.38 18.01 17.48C17.96 17.57 17.92 17.67 17.89 17.77C17.85 17.87 17.83 17.98 17.81 18.08C17.8 18.19 17.79 18.3 17.79 18.41L17.83 20.47C16.88 21.16 15.84 21.67 14.72 21.99L13.16 20.68C13.08 20.61 12.99 20.55 12.9 20.49C12.81 20.44 12.71 20.39 12.61 20.36C12.51 20.32 12.41 20.29 12.31 20.27C12.21 20.26 12.1 20.25 12 20.25C11.89 20.25 11.78 20.26 11.68 20.27C11.58 20.29 11.48 20.32 11.38 20.36C11.28 20.39 11.18 20.44 11.09 20.49C11 20.55 10.91 20.61 10.83 20.68L9.27 22ZM12 16.35C12.13 16.35 12.26 16.35 12.4 16.33C12.53 16.32 12.66 16.3 12.79 16.27C12.93 16.25 13.06 16.21 13.18 16.17C13.31 16.14 13.44 16.09 13.56 16.04C13.69 15.99 13.81 15.93 13.93 15.86C14.04 15.8 14.16 15.73 14.27 15.65C14.38 15.58 14.49 15.49 14.59 15.41C14.7 15.32 14.8 15.23 14.89 15.13C14.99 15.04 15.08 14.94 15.16 14.83C15.25 14.72 15.33 14.62 15.4 14.5C15.48 14.39 15.54 14.27 15.61 14.15C15.67 14.03 15.73 13.91 15.78 13.78C15.83 13.65 15.88 13.53 15.91 13.4C15.95 13.27 15.99 13.13 16.01 13C16.04 12.87 16.06 12.73 16.07 12.59C16.08 12.46 16.09 12.32 16.09 12.19C16.09 12.05 16.08 11.91 16.07 11.78C16.06 11.64 16.04 11.51 16.01 11.37C15.99 11.24 15.95 11.11 15.91 10.98C15.88 10.84 15.83 10.72 15.78 10.59C15.73 10.46 15.67 10.34 15.61 10.22C15.54 10.1 15.48 9.98 15.4 9.87C15.33 9.76 15.25 9.65 15.16 9.54C15.08 9.44 14.99 9.33 14.89 9.24C14.8 9.14 14.7 9.05 14.59 8.96C14.49 8.88 14.38 8.8 14.27 8.72C14.16 8.64 14.04 8.57 13.93 8.51C13.81 8.44 13.69 8.39 13.56 8.33C13.44 8.28 13.31 8.24 13.18 8.2C13.06 8.16 12.93 8.12 12.79 8.1C12.66 8.07 12.53 8.05 12.4 8.04C12.26 8.02 12.13 8.02 12 8.02C11.86 8.02 11.73 8.02 11.59 8.04C11.46 8.05 11.33 8.07 11.2 8.1C11.06 8.12 10.93 8.16 10.81 8.2C10.68 8.24 10.55 8.28 10.43 8.33C10.3 8.39 10.18 8.44 10.06 8.51C9.95 8.57 9.83 8.64 9.72 8.72C9.61 8.8 9.5 8.88 9.4 8.96C9.29 9.05 9.19 9.14 9.1 9.24C9 9.33 8.91 9.44 8.83 9.54C8.74 9.65 8.66 9.76 8.59 9.87C8.51 9.98 8.45 10.1 8.38 10.22C8.32 10.34 8.26 10.46 8.21 10.59C8.16 10.72 8.11 10.84 8.08 10.98C8.04 11.11 8 11.24 7.98 11.37C7.95 11.51 7.93 11.64 7.92 11.78C7.91 11.91 7.9 12.05 7.9 12.19C7.9 12.32 7.91 12.46 7.92 12.59C7.93 12.73 7.95 12.87 7.98 13C8 13.13 8.04 13.27 8.08 13.4C8.11 13.53 8.16 13.65 8.21 13.78C8.26 13.91 8.32 14.03 8.38 14.15C8.45 14.27 8.51 14.39 8.59 14.5C8.66 14.62 8.74 14.72 8.83 14.83C8.91 14.94 9 15.04 9.1 15.13C9.19 15.23 9.29 15.32 9.4 15.41C9.5 15.49 9.61 15.58 9.72 15.65C9.83 15.73 9.95 15.8 10.06 15.86C10.18 15.93 10.3 15.99 10.43 16.04C10.55 16.09 10.68 16.14 10.81 16.17C10.93 16.21 11.06 16.25 11.2 16.27C11.33 16.3 11.46 16.32 11.59 16.33C11.73 16.35 11.86 16.35 12 16.35Z" fill="#000000" fill-opacity="0.600000" fill-rule="nonzero"/>
	</g>
</svg>
