<svg width="24.000000" height="24.000000" viewBox="0 0 24 24" fill="none" xmlns="http://www.w3.org/2000/svg" xmlns:xlink="http://www.w3.org/1999/xlink">
	<desc>
			Created with Pixso.
	</desc>
	<defs>
		<clipPath id="clip130_2797">
			<rect width="24.000000" height="24.000000" fill="white" fill-opacity="0"/>
		</clipPath>
	</defs>
	<g clip-path="url(#clip130_2797)">
		<path d="M20.95 8.33L20.91 8.33C19.99 4.16 16.11 1.2 11.67 1.28C7.23 1.36 3.47 4.46 2.71 8.66C1.89 8.79 1.28 9.5 1.28 10.34L1.28 13.7C1.3 14.65 2.08 15.4 3.03 15.38C3.54 15.37 4.02 15.15 4.34 14.76C5.13 16.74 6.68 18.32 8.65 19.14C8.68 19.09 8.7 19.05 8.74 19.01C8.76 18.97 8.79 18.94 8.83 18.93C8.86 18.93 8.89 18.95 8.92 18.96C8.59 18.68 8.3 18.38 8.03 18.04C7.75 17.71 7.51 17.36 7.3 16.98C7.09 16.61 6.92 16.22 6.77 15.82C6.63 15.41 6.52 15 6.45 14.58C6.33 13.54 7.01 12.58 8.03 12.35C9.54 12.07 11.04 11.77 12.54 11.51C13.43 11.38 14.19 10.81 14.55 9.98C14.71 9.61 14.81 9.22 14.85 8.81C14.86 8.74 14.91 8.68 14.98 8.67C15.06 8.65 15.13 8.68 15.18 8.74L15.22 8.71C15.81 9.55 16.97 11.39 17.15 13.33C17.35 15.56 17.24 17.08 15.48 18.64C15.45 18.67 15.44 18.7 15.44 18.74C15.44 18.79 15.47 18.83 15.51 18.85L15.62 18.85L15.69 18.81C17.47 17.86 18.81 16.27 19.44 14.37C19.71 14.74 20.11 15 20.56 15.09C19.82 18.37 16.8 20.42 13.05 20.74C12.77 20.06 12.06 19.68 11.35 19.83C10.56 19.96 10.02 20.7 10.15 21.49C10.25 22.13 10.77 22.63 11.42 22.69C12.14 22.8 12.84 22.39 13.08 21.71C17.42 21.37 20.89 18.87 21.62 14.98C22.27 14.73 22.7 14.1 22.71 13.41L22.71 10.04C22.71 9.59 22.52 9.15 22.19 8.83C21.85 8.51 21.4 8.33 20.93 8.33L20.95 8.33ZM19.35 9.3C17.69 5.15 12.97 3.14 8.83 4.81C6.79 5.62 5.18 7.23 4.35 9.26C4.29 9.19 4.23 9.13 4.16 9.07C4.76 5.45 8 2.78 11.82 2.77C15.64 2.75 18.91 5.4 19.53 9.02C19.46 9.11 19.4 9.2 19.35 9.3Z" fill="#F7CE00" fill-opacity="1.000000" fill-rule="nonzero"/>
	</g>
</svg>
