<svg width="16.000000" height="16.000000" viewBox="0 0 16 16" fill="none" xmlns="http://www.w3.org/2000/svg" xmlns:xlink="http://www.w3.org/1999/xlink">
	<desc>
			Created with Pixso.
	</desc>
	<defs/>
	<path d="M9.99 7.34L5.35 2.84C5.26 2.73 5.21 2.62 5.21 2.49C5.21 2.36 5.26 2.24 5.35 2.14C5.45 2.04 5.56 2 5.7 2C5.84 2 5.96 2.04 6.06 2.14L10.71 6.66C10.9 6.85 11 7.08 11 7.34C11 7.61 10.9 7.84 10.71 8.03L6.07 12.52C5.98 12.61 5.87 12.66 5.73 12.66C5.58 12.66 5.46 12.61 5.37 12.52C5.27 12.43 5.22 12.31 5.22 12.17C5.22 12.04 5.27 11.93 5.37 11.84L9.99 7.34Z" fill="#000000" fill-opacity="0.600000" fill-rule="nonzero"/>
</svg>
