<svg width="16.000000" height="16.000000" viewBox="0 0 16 16" fill="none" xmlns="http://www.w3.org/2000/svg" xmlns:xlink="http://www.w3.org/1999/xlink">
	<desc>
			Created with Pixso.
	</desc>
	<defs>
		<clipPath id="clip120_883">
			<rect width="16.000000" height="16.000000" fill="white" fill-opacity="0"/>
		</clipPath>
	</defs>
	<g clip-path="url(#clip120_883)">
		<path d="M12.38 14L4.41 14C4.18 14 3.99 13.81 3.99 13.57L3.99 12.92L3.42 12.92C3.18 12.92 3 12.73 3 12.5L3 4.81C3 4.58 3.18 4.39 3.42 4.39L3.99 4.39L3.99 3.42C3.99 3.18 4.18 3 4.41 3L12.38 3C12.61 3 12.8 3.18 12.8 3.42L12.8 4.39L13.57 4.39C13.81 4.39 14 4.58 14 4.81L14 12.5C14 12.73 13.81 12.92 13.57 12.92L12.8 12.92L12.8 13.57C12.8 13.81 12.61 14 12.38 14ZM4.84 13.15L11.96 13.15L11.96 12.5C11.96 12.27 12.15 12.08 12.38 12.08L13.15 12.08L13.15 5.23L12.38 5.23C12.14 5.23 11.96 5.04 11.96 4.81L11.96 3.84L4.84 3.84L4.84 4.81C4.84 5.04 4.65 5.23 4.41 5.23L3.84 5.23L3.84 12.08L4.41 12.08C4.65 12.08 4.84 12.27 4.84 12.5L4.84 13.15Z" fill="#000000" fill-opacity="0.600000" fill-rule="nonzero"/>
		<path d="M4.43 13C4.32 13 4.21 12.95 4.12 12.87C3.95 12.7 3.95 12.43 4.12 12.26L12.26 4.12C12.43 3.95 12.7 3.95 12.87 4.12C13.04 4.29 13.04 4.56 12.87 4.73L4.73 12.87C4.65 12.95 4.54 13 4.43 13Z" fill="#000000" fill-opacity="0.600000" fill-rule="nonzero"/>
		<path d="M4.33 11C4.24 11 4.16 10.96 4.09 10.9C3.96 10.77 3.96 10.55 4.09 10.42L10.42 4.09C10.55 3.96 10.77 3.96 10.9 4.09C11.03 4.22 11.03 4.44 10.9 4.57L4.57 10.9C4.5 10.96 4.42 11 4.33 11Z" fill="#000000" fill-opacity="0.600000" fill-rule="nonzero"/>
		<path d="M6.33 13C6.24 13 6.16 12.96 6.09 12.9C5.96 12.77 5.96 12.55 6.09 12.42L12.42 6.09C12.55 5.96 12.77 5.96 12.9 6.09C13.03 6.22 13.03 6.44 12.9 6.57L6.57 12.9C6.5 12.96 6.42 13 6.33 13Z" fill="#000000" fill-opacity="0.600000" fill-rule="nonzero"/>
	</g>
</svg>
