<svg width="16.000000" height="16.000000" viewBox="0 0 16 16" fill="none" xmlns="http://www.w3.org/2000/svg" xmlns:xlink="http://www.w3.org/1999/xlink">
	<desc>
			Created with Pixso.
	</desc>
	<defs>
		<clipPath id="clip133_2280">
			<rect width="16.000000" height="16.000000" fill="white" fill-opacity="0"/>
		</clipPath>
	</defs>
	<g clip-path="url(#clip133_2280)">
		<path d="M11.12 11.34C11.13 11.31 11.15 11.28 11.16 11.26C11.18 11.23 11.2 11.21 11.22 11.18C11.24 11.16 11.27 11.14 11.29 11.12C11.32 11.1 11.35 11.09 11.38 11.08C11.4 11.06 11.43 11.05 11.47 11.05C11.5 11.04 11.53 11.04 11.56 11.04C11.59 11.03 11.62 11.04 11.65 11.04C11.68 11.05 11.71 11.06 11.74 11.07C12.89 11.52 13.6 12.17 13.6 12.97C13.6 14.5 11 15.52 7.84 15.52C4.67 15.52 2.08 14.5 2.08 12.97C2.08 12.17 2.78 11.52 3.93 11.07C3.96 11.06 3.99 11.05 4.02 11.04C4.05 11.04 4.08 11.04 4.11 11.04C4.14 11.04 4.17 11.04 4.2 11.05C4.23 11.06 4.26 11.07 4.29 11.08C4.32 11.09 4.35 11.11 4.37 11.13C4.4 11.14 4.42 11.16 4.44 11.19C4.46 11.21 4.48 11.23 4.5 11.26C4.51 11.29 4.53 11.31 4.54 11.34C4.55 11.37 4.56 11.4 4.57 11.43C4.57 11.46 4.57 11.49 4.57 11.53C4.57 11.56 4.57 11.59 4.56 11.62C4.56 11.65 4.55 11.68 4.53 11.71C4.52 11.74 4.51 11.76 4.49 11.79C4.47 11.81 4.45 11.84 4.43 11.86C4.41 11.88 4.38 11.9 4.36 11.92C4.33 11.94 4.3 11.95 4.28 11.96C3.46 12.28 3.04 12.67 3.04 12.97C3.04 13.72 5.16 14.56 7.84 14.56C10.51 14.56 12.64 13.72 12.64 12.97C12.64 12.67 12.21 12.28 11.39 11.96C11.36 11.95 11.34 11.94 11.31 11.92C11.28 11.9 11.26 11.88 11.24 11.86C11.21 11.84 11.19 11.82 11.18 11.79C11.16 11.76 11.14 11.74 11.13 11.71C11.12 11.68 11.11 11.65 11.1 11.62C11.09 11.59 11.09 11.56 11.09 11.52C11.09 11.49 11.09 11.46 11.1 11.43C11.1 11.4 11.11 11.37 11.12 11.34Z" fill="#000000" fill-opacity="0.600000" fill-rule="nonzero"/>
		<path d="M4.37 3.48L4.31 3.53L4.26 3.59C2.44 5.46 2.49 8.46 4.37 10.27L6.88 12.71C6.91 12.74 6.95 12.77 6.98 12.79C7.01 12.82 7.05 12.85 7.09 12.87C7.12 12.89 7.16 12.92 7.2 12.94C7.24 12.96 7.28 12.98 7.32 12.99C7.36 13.01 7.4 13.02 7.44 13.04C7.49 13.05 7.53 13.06 7.57 13.07C7.62 13.08 7.66 13.08 7.7 13.09C7.75 13.09 7.79 13.09 7.84 13.09C7.88 13.09 7.92 13.09 7.97 13.09C8.01 13.08 8.05 13.08 8.1 13.07C8.14 13.06 8.18 13.05 8.23 13.04C8.27 13.02 8.31 13.01 8.35 12.99C8.39 12.98 8.43 12.96 8.47 12.94C8.51 12.92 8.55 12.89 8.58 12.87C8.62 12.85 8.66 12.82 8.69 12.79C8.72 12.77 8.76 12.74 8.79 12.71L11.3 10.27C11.34 10.24 11.38 10.2 11.41 10.16C13.23 8.29 13.18 5.29 11.3 3.48C9.37 1.6 6.3 1.6 4.37 3.48ZM5.04 4.17C6.6 2.65 9.07 2.65 10.64 4.17C12.13 5.61 12.17 8 10.72 9.5L10.68 9.54L8.12 12.02C8.1 12.04 8.08 12.05 8.06 12.07C8.04 12.08 8.01 12.09 7.99 12.1C7.97 12.11 7.94 12.12 7.91 12.13C7.89 12.13 7.86 12.13 7.84 12.13C7.81 12.13 7.78 12.13 7.76 12.13C7.73 12.12 7.7 12.11 7.68 12.1C7.66 12.09 7.63 12.08 7.61 12.07C7.59 12.05 7.57 12.04 7.55 12.02L5.04 9.58C3.54 8.14 3.5 5.75 4.95 4.25L5.04 4.17Z" fill="#000000" fill-opacity="0.600000" fill-rule="nonzero"/>
		<path d="M7.84 4.8C7.76 4.8 7.69 4.8 7.62 4.81C7.54 4.81 7.47 4.82 7.4 4.84C7.33 4.85 7.26 4.87 7.18 4.89C7.11 4.91 7.05 4.94 6.98 4.97C6.91 4.99 6.84 5.03 6.78 5.06C6.71 5.09 6.65 5.13 6.59 5.17C6.53 5.21 6.47 5.26 6.41 5.3C6.36 5.35 6.3 5.4 6.25 5.45C6.2 5.5 6.15 5.56 6.1 5.61C6.06 5.67 6.01 5.73 5.97 5.79C5.93 5.85 5.89 5.91 5.86 5.98C5.83 6.04 5.79 6.11 5.77 6.18C5.74 6.25 5.71 6.31 5.69 6.38C5.67 6.45 5.65 6.53 5.64 6.6C5.62 6.67 5.61 6.74 5.61 6.82C5.6 6.89 5.6 6.96 5.6 7.04C5.6 7.11 5.6 7.18 5.61 7.25C5.61 7.33 5.62 7.4 5.64 7.47C5.65 7.54 5.67 7.62 5.69 7.69C5.71 7.76 5.74 7.82 5.77 7.89C5.79 7.96 5.83 8.03 5.86 8.09C5.89 8.16 5.93 8.22 5.97 8.28C6.01 8.34 6.06 8.4 6.1 8.46C6.15 8.51 6.2 8.57 6.25 8.62C6.3 8.67 6.36 8.72 6.41 8.77C6.47 8.81 6.53 8.86 6.59 8.9C6.65 8.94 6.71 8.98 6.78 9.01C6.84 9.05 6.91 9.08 6.98 9.1C7.05 9.13 7.11 9.16 7.18 9.18C7.26 9.2 7.33 9.22 7.4 9.23C7.47 9.25 7.54 9.26 7.62 9.26C7.69 9.27 7.76 9.28 7.84 9.28C7.91 9.28 7.98 9.27 8.05 9.26C8.13 9.26 8.2 9.25 8.27 9.23C8.34 9.22 8.42 9.2 8.49 9.18C8.56 9.16 8.62 9.13 8.69 9.1C8.76 9.08 8.83 9.05 8.89 9.01C8.96 8.98 9.02 8.94 9.08 8.9C9.14 8.86 9.2 8.81 9.26 8.77C9.31 8.72 9.37 8.67 9.42 8.62C9.47 8.57 9.52 8.51 9.57 8.46C9.61 8.4 9.66 8.34 9.7 8.28C9.74 8.22 9.78 8.16 9.81 8.09C9.85 8.03 9.88 7.96 9.9 7.89C9.93 7.82 9.96 7.76 9.98 7.69C10 7.62 10.02 7.54 10.03 7.47C10.05 7.4 10.06 7.33 10.06 7.25C10.07 7.18 10.08 7.11 10.08 7.04C10.08 6.96 10.07 6.89 10.06 6.82C10.06 6.74 10.05 6.67 10.03 6.6C10.02 6.53 10 6.45 9.98 6.38C9.96 6.31 9.93 6.25 9.9 6.18C9.88 6.11 9.85 6.04 9.81 5.98C9.78 5.91 9.74 5.85 9.7 5.79C9.66 5.73 9.61 5.67 9.57 5.61C9.52 5.56 9.47 5.5 9.42 5.45C9.37 5.4 9.31 5.35 9.26 5.3C9.2 5.26 9.14 5.21 9.08 5.17C9.02 5.13 8.96 5.09 8.89 5.06C8.83 5.03 8.76 4.99 8.69 4.97C8.62 4.94 8.56 4.91 8.49 4.89C8.42 4.87 8.34 4.85 8.27 4.84C8.2 4.82 8.13 4.81 8.05 4.81C7.98 4.8 7.91 4.8 7.84 4.8ZM7.84 5.76C7.88 5.76 7.92 5.76 7.96 5.76C8 5.77 8.04 5.77 8.08 5.78C8.13 5.79 8.17 5.8 8.21 5.81C8.25 5.82 8.29 5.84 8.32 5.85C8.36 5.87 8.4 5.89 8.44 5.91C8.48 5.93 8.51 5.95 8.55 5.97C8.58 5.99 8.61 6.02 8.65 6.05C8.68 6.07 8.71 6.1 8.74 6.13C8.77 6.16 8.8 6.19 8.82 6.22C8.85 6.26 8.88 6.29 8.9 6.32C8.92 6.36 8.94 6.39 8.96 6.43C8.98 6.47 9 6.51 9.02 6.55C9.03 6.58 9.05 6.62 9.06 6.66C9.07 6.7 9.08 6.74 9.09 6.79C9.1 6.83 9.1 6.87 9.11 6.91C9.11 6.95 9.12 6.99 9.12 7.04C9.12 7.08 9.11 7.12 9.11 7.16C9.1 7.2 9.1 7.24 9.09 7.28C9.08 7.33 9.07 7.37 9.06 7.41C9.05 7.45 9.03 7.49 9.02 7.52C9 7.56 8.98 7.6 8.96 7.64C8.94 7.68 8.92 7.71 8.9 7.75C8.88 7.78 8.85 7.81 8.82 7.85C8.8 7.88 8.77 7.91 8.74 7.94C8.71 7.97 8.68 8 8.65 8.02C8.61 8.05 8.58 8.08 8.55 8.1C8.51 8.12 8.48 8.14 8.44 8.16C8.4 8.18 8.36 8.2 8.32 8.22C8.29 8.23 8.25 8.25 8.21 8.26C8.17 8.27 8.13 8.28 8.08 8.29C8.04 8.3 8 8.3 7.96 8.31C7.92 8.31 7.88 8.32 7.84 8.32C7.79 8.32 7.75 8.31 7.71 8.31C7.67 8.3 7.63 8.3 7.59 8.29C7.54 8.28 7.5 8.27 7.46 8.26C7.42 8.25 7.38 8.23 7.35 8.22C7.31 8.2 7.27 8.18 7.23 8.16C7.19 8.14 7.16 8.12 7.12 8.1C7.09 8.08 7.06 8.05 7.02 8.02C6.99 8 6.96 7.97 6.93 7.94C6.9 7.91 6.87 7.88 6.85 7.85C6.82 7.81 6.79 7.78 6.77 7.75C6.75 7.71 6.73 7.68 6.71 7.64C6.69 7.6 6.67 7.56 6.65 7.52C6.64 7.49 6.62 7.45 6.61 7.41C6.6 7.37 6.59 7.33 6.58 7.28C6.57 7.24 6.57 7.2 6.56 7.16C6.56 7.12 6.56 7.08 6.56 7.04C6.56 6.99 6.56 6.95 6.56 6.91C6.57 6.87 6.57 6.83 6.58 6.79C6.59 6.74 6.6 6.7 6.61 6.66C6.62 6.62 6.64 6.58 6.65 6.55C6.67 6.51 6.69 6.47 6.71 6.43C6.73 6.39 6.75 6.36 6.77 6.32C6.79 6.29 6.82 6.26 6.85 6.22C6.87 6.19 6.9 6.16 6.93 6.13C6.96 6.1 6.99 6.07 7.02 6.05C7.06 6.02 7.09 5.99 7.12 5.97C7.16 5.95 7.19 5.93 7.23 5.91C7.27 5.89 7.31 5.87 7.35 5.85C7.38 5.84 7.42 5.82 7.46 5.81C7.5 5.8 7.54 5.79 7.59 5.78C7.63 5.77 7.67 5.77 7.71 5.76C7.75 5.76 7.79 5.76 7.84 5.76Z" fill="#000000" fill-opacity="0.600000" fill-rule="nonzero"/>
	</g>
</svg>
